<svg xmlns="http://www.w3.org/2000/svg" viewBox="0 0 500 500"><g id="freepik--background-complete--inject-10"><rect y="382.4" width="500" height="0.25" style="fill:#ebebeb"></rect><rect x="416.78" y="398.49" width="33.12" height="0.25" style="fill:#ebebeb"></rect><rect x="322.53" y="401.21" width="8.69" height="0.25" style="fill:#ebebeb"></rect><rect x="396.59" y="389.21" width="19.19" height="0.25" style="fill:#ebebeb"></rect><rect x="52.46" y="390.89" width="43.19" height="0.25" style="fill:#ebebeb"></rect><rect x="104.56" y="390.89" width="6.33" height="0.25" style="fill:#ebebeb"></rect><rect x="131.47" y="395.11" width="93.68" height="0.25" style="fill:#ebebeb"></rect><path d="M237,337.8H43.91a5.71,5.71,0,0,1-5.7-5.71V60.66A5.71,5.71,0,0,1,43.91,55H237a5.71,5.71,0,0,1,5.71,5.71V332.09A5.71,5.71,0,0,1,237,337.8ZM43.91,55.2a5.46,5.46,0,0,0-5.45,5.46V332.09a5.46,5.46,0,0,0,5.45,5.46H237a5.47,5.47,0,0,0,5.46-5.46V60.66A5.47,5.47,0,0,0,237,55.2Z" style="fill:#ebebeb"></path><path d="M453.31,337.8H260.21a5.72,5.72,0,0,1-5.71-5.71V60.66A5.72,5.72,0,0,1,260.21,55h193.1A5.71,5.71,0,0,1,459,60.66V332.09A5.71,5.71,0,0,1,453.31,337.8ZM260.21,55.2a5.47,5.47,0,0,0-5.46,5.46V332.09a5.47,5.47,0,0,0,5.46,5.46h193.1a5.47,5.47,0,0,0,5.46-5.46V60.66a5.47,5.47,0,0,0-5.46-5.46Z" style="fill:#ebebeb"></path><rect x="205.32" y="97.74" width="220.94" height="212.97" style="fill:#e0e0e0"></rect><rect x="205.32" y="101.61" width="217.4" height="205.39" style="fill:#f5f5f5"></rect><polygon points="421.11 257.25 421.11 195.47 414.69 195.47 414.69 187.31 400.25 180.56 400.25 172.21 397.85 172.21 397.85 195.47 395.44 195.47 395.44 257.25 392.23 257.25 392.23 225.16 385.01 225.16 385.01 208.31 382.6 208.31 382.6 257.25 376.99 257.25 376.99 238.8 372.97 238.8 372.97 233.99 364.15 233.99 364.15 217.14 359.33 217.14 359.33 205.9 353.72 205.9 353.72 189.06 351.31 189.06 351.31 205.9 345.7 205.9 345.7 217.14 340.88 217.14 340.88 233.99 332.06 233.99 332.06 238.8 328.05 238.8 328.05 257.25 323.23 257.25 323.23 233.99 314.41 233.99 314.41 182.64 312 182.64 312 177.02 292.75 177.02 292.75 182.64 288.73 182.64 288.73 219.54 272.69 219.54 272.69 223.56 267.07 223.56 267.07 225.96 272.69 225.96 272.69 240.4 255.84 240.4 255.84 192.26 252.63 192.26 252.63 182.64 244.61 182.64 244.61 145.73 242.2 145.73 242.2 182.64 236.58 182.64 236.58 192.26 205.32 192.26 205.32 306.99 422.72 306.99 422.72 257.25 421.11 257.25" style="fill:#e6e6e6"></polygon><rect x="222.03" y="194.78" width="2.27" height="2.27" style="fill:#f0f0f0"></rect><rect x="222.03" y="198.59" width="2.27" height="2.27" style="fill:#f0f0f0"></rect><rect x="222.03" y="213.84" width="2.27" height="2.27" style="fill:#f0f0f0"></rect><rect x="222.03" y="217.65" width="2.27" height="2.27" style="fill:#f0f0f0"></rect><rect x="222.03" y="221.46" width="2.27" height="2.27" style="fill:#f0f0f0"></rect><rect x="222.03" y="232.89" width="2.27" height="2.27" style="fill:#f0f0f0"></rect><rect x="222.03" y="236.7" width="2.27" height="2.27" style="fill:#f0f0f0"></rect><rect x="225.64" y="210.02" width="2.27" height="2.27" style="fill:#f0f0f0"></rect><rect x="225.64" y="213.84" width="2.27" height="2.27" style="fill:#f0f0f0"></rect><rect x="225.64" y="217.65" width="2.27" height="2.27" style="fill:#f0f0f0"></rect><rect x="225.64" y="221.46" width="2.27" height="2.27" style="fill:#f0f0f0"></rect><rect x="225.64" y="225.27" width="2.27" height="2.27" style="fill:#f0f0f0"></rect><rect x="225.64" y="232.89" width="2.27" height="2.27" style="fill:#f0f0f0"></rect><rect x="225.64" y="236.7" width="2.27" height="2.27" style="fill:#f0f0f0"></rect><rect x="229.25" y="194.78" width="2.27" height="2.27" style="fill:#f0f0f0"></rect><rect x="229.25" y="198.59" width="2.27" height="2.27" style="fill:#f0f0f0"></rect><rect x="229.25" y="202.4" width="2.27" height="2.27" style="fill:#f0f0f0"></rect><rect x="229.25" y="206.21" width="2.27" height="2.27" style="fill:#f0f0f0"></rect><rect x="229.25" y="210.02" width="2.27" height="2.27" style="fill:#f0f0f0"></rect><rect x="229.25" y="213.84" width="2.27" height="2.27" style="fill:#f0f0f0"></rect><rect x="229.25" y="217.65" width="2.27" height="2.27" style="fill:#f0f0f0"></rect><rect x="229.25" y="221.46" width="2.27" height="2.27" style="fill:#f0f0f0"></rect><rect x="229.25" y="225.27" width="2.27" height="2.27" style="fill:#f0f0f0"></rect><rect x="229.25" y="229.08" width="2.27" height="2.27" style="fill:#f0f0f0"></rect><rect x="229.25" y="236.7" width="2.27" height="2.27" style="fill:#f0f0f0"></rect><rect x="232.86" y="194.78" width="2.27" height="2.27" style="fill:#f0f0f0"></rect><rect x="232.86" y="198.59" width="2.27" height="2.27" style="fill:#f0f0f0"></rect><rect x="232.86" y="202.4" width="2.27" height="2.27" style="fill:#f0f0f0"></rect><rect x="232.86" y="206.21" width="2.27" height="2.27" style="fill:#f0f0f0"></rect><rect x="232.86" y="210.02" width="2.27" height="2.27" style="fill:#f0f0f0"></rect><rect x="232.86" y="213.84" width="2.27" height="2.27" style="fill:#f0f0f0"></rect><rect x="232.86" y="217.65" width="2.27" height="2.27" style="fill:#f0f0f0"></rect><rect x="232.86" y="251.94" width="2.27" height="2.27" style="fill:#f0f0f0"></rect><rect x="236.47" y="194.78" width="2.27" height="2.27" style="fill:#f0f0f0"></rect><rect x="236.47" y="198.59" width="2.27" height="2.27" style="fill:#f0f0f0"></rect><rect x="236.47" y="202.4" width="2.27" height="2.27" style="fill:#f0f0f0"></rect><rect x="236.47" y="206.21" width="2.27" height="2.27" style="fill:#f0f0f0"></rect><rect x="236.47" y="210.02" width="2.27" height="2.27" style="fill:#f0f0f0"></rect><rect x="236.47" y="213.84" width="2.27" height="2.27" style="fill:#f0f0f0"></rect><rect x="236.47" y="217.65" width="2.27" height="2.27" style="fill:#f0f0f0"></rect><rect x="236.47" y="221.46" width="2.27" height="2.27" style="fill:#f0f0f0"></rect><rect x="236.47" y="244.32" width="2.27" height="2.27" style="fill:#f0f0f0"></rect><rect x="236.47" y="248.13" width="2.27" height="2.27" style="fill:#f0f0f0"></rect><rect x="236.47" y="251.94" width="2.27" height="2.27" style="fill:#f0f0f0"></rect><rect x="236.47" y="255.75" width="2.27" height="2.27" style="fill:#f0f0f0"></rect><rect x="236.47" y="271" width="2.27" height="2.27" style="fill:#f0f0f0"></rect><rect x="240.08" y="194.78" width="2.27" height="2.27" style="fill:#f0f0f0"></rect><rect x="240.08" y="198.59" width="2.27" height="2.27" style="fill:#f0f0f0"></rect><rect x="240.08" y="202.4" width="2.27" height="2.27" style="fill:#f0f0f0"></rect><rect x="240.08" y="206.21" width="2.27" height="2.27" style="fill:#f0f0f0"></rect><rect x="240.08" y="210.02" width="2.27" height="2.27" style="fill:#f0f0f0"></rect><rect x="240.08" y="213.84" width="2.27" height="2.27" style="fill:#f0f0f0"></rect><rect x="240.08" y="217.65" width="2.27" height="2.27" style="fill:#f0f0f0"></rect><rect x="240.08" y="221.46" width="2.27" height="2.27" style="fill:#f0f0f0"></rect><rect x="240.08" y="225.27" width="2.27" height="2.27" style="fill:#f0f0f0"></rect><rect x="240.08" y="229.08" width="2.27" height="2.27" style="fill:#f0f0f0"></rect><rect x="240.08" y="240.51" width="2.27" height="2.27" style="fill:#f0f0f0"></rect><rect x="240.08" y="244.32" width="2.27" height="2.27" style="fill:#f0f0f0"></rect><rect x="240.08" y="248.13" width="2.27" height="2.27" style="fill:#f0f0f0"></rect><rect x="240.08" y="251.94" width="2.27" height="2.27" style="fill:#f0f0f0"></rect><rect x="240.08" y="255.75" width="2.27" height="2.27" style="fill:#f0f0f0"></rect><rect x="240.08" y="271" width="2.27" height="2.27" style="fill:#f0f0f0"></rect><rect x="243.69" y="194.78" width="2.27" height="2.27" style="fill:#f0f0f0"></rect><rect x="243.69" y="198.59" width="2.27" height="2.27" style="fill:#f0f0f0"></rect><rect x="243.69" y="202.4" width="2.27" height="2.27" style="fill:#f0f0f0"></rect><rect x="243.69" y="206.21" width="2.27" height="2.27" style="fill:#f0f0f0"></rect><rect x="243.69" y="210.02" width="2.27" height="2.27" style="fill:#f0f0f0"></rect><rect x="243.69" y="213.84" width="2.27" height="2.27" style="fill:#f0f0f0"></rect><rect x="243.69" y="217.65" width="2.27" height="2.27" style="fill:#f0f0f0"></rect><rect x="243.69" y="221.46" width="2.27" height="2.27" style="fill:#f0f0f0"></rect><rect x="243.69" y="225.27" width="2.27" height="2.27" style="fill:#f0f0f0"></rect><rect x="243.69" y="229.08" width="2.27" height="2.27" style="fill:#f0f0f0"></rect><rect x="243.69" y="232.89" width="2.27" height="2.27" style="fill:#f0f0f0"></rect><rect x="243.69" y="236.7" width="2.27" height="2.27" style="fill:#f0f0f0"></rect><rect x="243.69" y="240.51" width="2.27" height="2.27" style="fill:#f0f0f0"></rect><rect x="243.69" y="244.32" width="2.27" height="2.27" style="fill:#f0f0f0"></rect><rect x="243.69" y="248.13" width="2.27" height="2.27" style="fill:#f0f0f0"></rect><rect x="243.69" y="251.94" width="2.27" height="2.27" style="fill:#f0f0f0"></rect><rect x="243.69" y="255.75" width="2.27" height="2.27" style="fill:#f0f0f0"></rect><rect x="243.69" y="259.57" width="2.27" height="2.27" style="fill:#f0f0f0"></rect><rect x="247.3" y="194.78" width="2.27" height="2.27" style="fill:#f0f0f0"></rect><rect x="247.3" y="198.59" width="2.27" height="2.27" style="fill:#f0f0f0"></rect><rect x="247.3" y="202.4" width="2.27" height="2.27" style="fill:#f0f0f0"></rect><rect x="247.3" y="206.21" width="2.27" height="2.27" style="fill:#f0f0f0"></rect><rect x="247.3" y="210.02" width="2.27" height="2.27" style="fill:#f0f0f0"></rect><rect x="247.3" y="213.84" width="2.27" height="2.27" style="fill:#f0f0f0"></rect><rect x="247.3" y="217.65" width="2.27" height="2.27" style="fill:#f0f0f0"></rect><rect x="247.3" y="221.46" width="2.27" height="2.27" style="fill:#f0f0f0"></rect><rect x="247.3" y="225.27" width="2.27" height="2.27" style="fill:#f0f0f0"></rect><rect x="247.3" y="229.08" width="2.27" height="2.27" style="fill:#f0f0f0"></rect><rect x="247.3" y="240.51" width="2.27" height="2.27" style="fill:#f0f0f0"></rect><rect x="247.3" y="244.32" width="2.27" height="2.27" style="fill:#f0f0f0"></rect><rect x="247.3" y="248.13" width="2.27" height="2.27" style="fill:#f0f0f0"></rect><rect x="247.3" y="251.94" width="2.27" height="2.27" style="fill:#f0f0f0"></rect><rect x="250.91" y="194.78" width="2.27" height="2.27" style="fill:#f0f0f0"></rect><rect x="250.91" y="198.59" width="2.27" height="2.27" style="fill:#f0f0f0"></rect><rect x="250.91" y="202.4" width="2.27" height="2.27" style="fill:#f0f0f0"></rect><rect x="250.91" y="206.21" width="2.27" height="2.27" style="fill:#f0f0f0"></rect><rect x="250.91" y="210.02" width="2.27" height="2.27" style="fill:#f0f0f0"></rect><rect x="250.91" y="213.84" width="2.27" height="2.27" style="fill:#f0f0f0"></rect><rect x="250.91" y="217.65" width="2.27" height="2.27" style="fill:#f0f0f0"></rect><rect x="250.91" y="221.46" width="2.27" height="2.27" style="fill:#f0f0f0"></rect><rect x="250.91" y="225.27" width="2.27" height="2.27" style="fill:#f0f0f0"></rect><rect x="250.91" y="229.08" width="2.27" height="2.27" style="fill:#f0f0f0"></rect><rect x="250.91" y="240.51" width="2.27" height="2.27" style="fill:#f0f0f0"></rect><rect x="250.91" y="244.32" width="2.27" height="2.27" style="fill:#f0f0f0"></rect><rect x="250.91" y="248.13" width="2.27" height="2.27" style="fill:#f0f0f0"></rect><rect x="291.56" y="184.89" width="2.27" height="2.27" style="fill:#f0f0f0"></rect><rect x="291.56" y="188.7" width="2.27" height="2.27" style="fill:#f0f0f0"></rect><rect x="291.56" y="192.51" width="2.27" height="2.27" style="fill:#f0f0f0"></rect><rect x="291.56" y="196.32" width="2.27" height="2.27" style="fill:#f0f0f0"></rect><rect x="291.56" y="200.13" width="2.27" height="2.27" style="fill:#f0f0f0"></rect><rect x="291.56" y="203.94" width="2.27" height="2.27" style="fill:#f0f0f0"></rect><rect x="291.56" y="207.75" width="2.27" height="2.27" style="fill:#f0f0f0"></rect><rect x="291.56" y="211.56" width="2.27" height="2.27" style="fill:#f0f0f0"></rect><rect x="291.56" y="222.99" width="2.27" height="2.27" style="fill:#f0f0f0"></rect><rect x="291.56" y="226.81" width="2.27" height="2.27" style="fill:#f0f0f0"></rect><rect x="295.17" y="184.89" width="2.27" height="2.27" style="fill:#f0f0f0"></rect><rect x="295.17" y="188.7" width="2.27" height="2.27" style="fill:#f0f0f0"></rect><rect x="295.17" y="192.51" width="2.27" height="2.27" style="fill:#f0f0f0"></rect><rect x="295.17" y="196.32" width="2.27" height="2.27" style="fill:#f0f0f0"></rect><rect x="295.17" y="200.13" width="2.27" height="2.27" style="fill:#f0f0f0"></rect><rect x="295.17" y="203.94" width="2.27" height="2.27" style="fill:#f0f0f0"></rect><rect x="295.17" y="207.75" width="2.27" height="2.27" style="fill:#f0f0f0"></rect><rect x="295.17" y="211.56" width="2.27" height="2.27" style="fill:#f0f0f0"></rect><rect x="295.17" y="226.81" width="2.27" height="2.27" style="fill:#f0f0f0"></rect><rect x="298.78" y="184.89" width="2.27" height="2.27" style="fill:#f0f0f0"></rect><rect x="298.78" y="188.7" width="2.27" height="2.27" style="fill:#f0f0f0"></rect><rect x="298.78" y="192.51" width="2.27" height="2.27" style="fill:#f0f0f0"></rect><rect x="298.78" y="196.32" width="2.27" height="2.27" style="fill:#f0f0f0"></rect><rect x="298.78" y="200.13" width="2.27" height="2.27" style="fill:#f0f0f0"></rect><rect x="298.78" y="203.94" width="2.27" height="2.27" style="fill:#f0f0f0"></rect><rect x="298.78" y="207.75" width="2.27" height="2.27" style="fill:#f0f0f0"></rect><rect x="298.78" y="211.56" width="2.27" height="2.27" style="fill:#f0f0f0"></rect><rect x="302.39" y="184.89" width="2.27" height="2.27" style="fill:#f0f0f0"></rect><rect x="302.39" y="188.7" width="2.27" height="2.27" style="fill:#f0f0f0"></rect><rect x="302.39" y="192.51" width="2.27" height="2.27" style="fill:#f0f0f0"></rect><rect x="302.39" y="196.32" width="2.27" height="2.27" style="fill:#f0f0f0"></rect><rect x="302.39" y="200.13" width="2.27" height="2.27" style="fill:#f0f0f0"></rect><rect x="302.39" y="203.94" width="2.27" height="2.27" style="fill:#f0f0f0"></rect><rect x="302.39" y="211.56" width="2.27" height="2.27" style="fill:#f0f0f0"></rect><rect x="302.39" y="215.37" width="2.27" height="2.27" style="fill:#f0f0f0"></rect><rect x="302.39" y="226.81" width="2.27" height="2.27" style="fill:#f0f0f0"></rect><rect x="302.39" y="230.62" width="2.27" height="2.27" style="fill:#f0f0f0"></rect><rect x="302.39" y="234.43" width="2.27" height="2.27" style="fill:#f0f0f0"></rect><rect x="302.39" y="238.24" width="2.27" height="2.27" style="fill:#f0f0f0"></rect><rect x="302.39" y="242.05" width="2.27" height="2.27" style="fill:#f0f0f0"></rect><rect x="302.39" y="245.86" width="2.27" height="2.27" style="fill:#f0f0f0"></rect><rect x="302.39" y="249.67" width="2.27" height="2.27" style="fill:#f0f0f0"></rect><rect x="306" y="184.89" width="2.27" height="2.27" style="fill:#f0f0f0"></rect><rect x="306" y="188.7" width="2.27" height="2.27" style="fill:#f0f0f0"></rect><rect x="306" y="192.51" width="2.27" height="2.27" style="fill:#f0f0f0"></rect><rect x="306" y="196.32" width="2.27" height="2.27" style="fill:#f0f0f0"></rect><rect x="306" y="200.13" width="2.27" height="2.27" style="fill:#f0f0f0"></rect><rect x="306" y="203.94" width="2.27" height="2.27" style="fill:#f0f0f0"></rect><rect x="306" y="215.37" width="2.27" height="2.27" style="fill:#f0f0f0"></rect><rect x="306" y="219.18" width="2.27" height="2.27" style="fill:#f0f0f0"></rect><rect x="306" y="222.99" width="2.27" height="2.27" style="fill:#f0f0f0"></rect><rect x="306" y="226.81" width="2.27" height="2.27" style="fill:#f0f0f0"></rect><rect x="306" y="230.62" width="2.27" height="2.27" style="fill:#f0f0f0"></rect><rect x="306" y="234.43" width="2.27" height="2.27" style="fill:#f0f0f0"></rect><rect x="306" y="238.24" width="2.27" height="2.27" style="fill:#f0f0f0"></rect><rect x="306" y="242.05" width="2.27" height="2.27" style="fill:#f0f0f0"></rect><rect x="306" y="245.86" width="2.27" height="2.27" style="fill:#f0f0f0"></rect><rect x="306" y="249.67" width="2.27" height="2.27" style="fill:#f0f0f0"></rect><rect x="306" y="253.48" width="2.27" height="2.27" style="fill:#f0f0f0"></rect><rect x="306" y="261.1" width="2.27" height="2.27" style="fill:#f0f0f0"></rect><rect x="309.61" y="184.89" width="2.27" height="2.27" style="fill:#f0f0f0"></rect><rect x="309.61" y="188.7" width="2.27" height="2.27" style="fill:#f0f0f0"></rect><rect x="309.61" y="192.51" width="2.27" height="2.27" style="fill:#f0f0f0"></rect><rect x="309.61" y="196.32" width="2.27" height="2.27" style="fill:#f0f0f0"></rect><rect x="309.61" y="200.13" width="2.27" height="2.27" style="fill:#f0f0f0"></rect><rect x="309.61" y="203.94" width="2.27" height="2.27" style="fill:#f0f0f0"></rect><rect x="309.61" y="215.37" width="2.27" height="2.27" style="fill:#f0f0f0"></rect><rect x="309.61" y="219.18" width="2.27" height="2.27" style="fill:#f0f0f0"></rect><rect x="309.61" y="222.99" width="2.27" height="2.27" style="fill:#f0f0f0"></rect><rect x="309.61" y="226.81" width="2.27" height="2.27" style="fill:#f0f0f0"></rect><rect x="309.61" y="238.24" width="2.27" height="2.27" style="fill:#f0f0f0"></rect><rect x="309.61" y="242.05" width="2.27" height="2.27" style="fill:#f0f0f0"></rect><rect x="309.61" y="245.86" width="2.27" height="2.27" style="fill:#f0f0f0"></rect><rect x="309.61" y="249.67" width="2.27" height="2.27" style="fill:#f0f0f0"></rect><rect x="309.61" y="253.48" width="2.27" height="2.27" style="fill:#f0f0f0"></rect><rect x="309.61" y="261.1" width="2.27" height="2.27" style="fill:#f0f0f0"></rect><rect x="309.61" y="264.91" width="2.27" height="2.27" style="fill:#f0f0f0"></rect><rect x="342.37" y="220.32" width="2.27" height="2.27" style="fill:#f0f0f0"></rect><rect x="342.37" y="224.13" width="2.27" height="2.27" style="fill:#f0f0f0"></rect><rect x="342.37" y="227.94" width="2.27" height="2.27" style="fill:#f0f0f0"></rect><rect x="342.37" y="231.75" width="2.27" height="2.27" style="fill:#f0f0f0"></rect><rect x="342.37" y="235.56" width="2.27" height="2.27" style="fill:#f0f0f0"></rect><rect x="342.37" y="239.38" width="2.27" height="2.27" style="fill:#f0f0f0"></rect><rect x="342.37" y="243.19" width="2.27" height="2.27" style="fill:#f0f0f0"></rect><rect x="342.37" y="254.62" width="2.27" height="2.27" style="fill:#f0f0f0"></rect><rect x="342.37" y="258.43" width="2.27" height="2.27" style="fill:#f0f0f0"></rect><rect x="342.37" y="262.24" width="2.27" height="2.27" style="fill:#f0f0f0"></rect><rect x="345.98" y="220.32" width="2.27" height="2.27" style="fill:#f0f0f0"></rect><rect x="345.98" y="224.13" width="2.27" height="2.27" style="fill:#f0f0f0"></rect><rect x="345.98" y="227.94" width="2.27" height="2.27" style="fill:#f0f0f0"></rect><rect x="345.98" y="231.75" width="2.27" height="2.27" style="fill:#f0f0f0"></rect><rect x="345.98" y="235.56" width="2.27" height="2.27" style="fill:#f0f0f0"></rect><rect x="345.98" y="239.38" width="2.27" height="2.27" style="fill:#f0f0f0"></rect><rect x="345.98" y="243.19" width="2.27" height="2.27" style="fill:#f0f0f0"></rect><rect x="349.59" y="220.32" width="2.27" height="2.27" style="fill:#f0f0f0"></rect><rect x="349.59" y="224.13" width="2.27" height="2.27" style="fill:#f0f0f0"></rect><rect x="349.59" y="227.94" width="2.27" height="2.27" style="fill:#f0f0f0"></rect><rect x="349.59" y="231.75" width="2.27" height="2.27" style="fill:#f0f0f0"></rect><rect x="349.59" y="235.56" width="2.27" height="2.27" style="fill:#f0f0f0"></rect><rect x="349.59" y="239.38" width="2.27" height="2.27" style="fill:#f0f0f0"></rect><rect x="349.59" y="243.19" width="2.27" height="2.27" style="fill:#f0f0f0"></rect><rect x="353.2" y="220.32" width="2.27" height="2.27" style="fill:#f0f0f0"></rect><rect x="353.2" y="224.13" width="2.27" height="2.27" style="fill:#f0f0f0"></rect><rect x="353.2" y="227.94" width="2.27" height="2.27" style="fill:#f0f0f0"></rect><rect x="353.2" y="231.75" width="2.27" height="2.27" style="fill:#f0f0f0"></rect><rect x="353.2" y="235.56" width="2.27" height="2.27" style="fill:#f0f0f0"></rect><rect x="353.2" y="239.38" width="2.27" height="2.27" style="fill:#f0f0f0"></rect><rect x="353.2" y="243.19" width="2.27" height="2.27" style="fill:#f0f0f0"></rect><rect x="353.2" y="247" width="2.27" height="2.27" style="fill:#f0f0f0"></rect><rect x="353.2" y="250.81" width="2.27" height="2.27" style="fill:#f0f0f0"></rect><rect x="353.2" y="254.62" width="2.27" height="2.27" style="fill:#f0f0f0"></rect><rect x="353.2" y="258.43" width="2.27" height="2.27" style="fill:#f0f0f0"></rect><rect x="356.81" y="220.32" width="2.27" height="2.27" style="fill:#f0f0f0"></rect><rect x="356.81" y="224.13" width="2.27" height="2.27" style="fill:#f0f0f0"></rect><rect x="356.81" y="227.94" width="2.27" height="2.27" style="fill:#f0f0f0"></rect><rect x="356.81" y="231.75" width="2.27" height="2.27" style="fill:#f0f0f0"></rect><rect x="356.81" y="235.56" width="2.27" height="2.27" style="fill:#f0f0f0"></rect><rect x="356.81" y="239.38" width="2.27" height="2.27" style="fill:#f0f0f0"></rect><rect x="356.81" y="243.19" width="2.27" height="2.27" style="fill:#f0f0f0"></rect><rect x="356.81" y="247" width="2.27" height="2.27" style="fill:#f0f0f0"></rect><rect x="356.81" y="250.81" width="2.27" height="2.27" style="fill:#f0f0f0"></rect><rect x="356.81" y="254.62" width="2.27" height="2.27" style="fill:#f0f0f0"></rect><rect x="356.81" y="258.43" width="2.27" height="2.27" style="fill:#f0f0f0"></rect><rect x="356.81" y="262.24" width="2.27" height="2.27" style="fill:#f0f0f0"></rect><rect x="356.81" y="273.67" width="2.27" height="2.27" style="fill:#f0f0f0"></rect><rect x="356.81" y="277.48" width="2.27" height="2.27" style="fill:#f0f0f0"></rect><rect x="360.42" y="220.32" width="2.27" height="2.27" style="fill:#f0f0f0"></rect><rect x="360.42" y="224.13" width="2.27" height="2.27" style="fill:#f0f0f0"></rect><rect x="360.42" y="227.94" width="2.27" height="2.27" style="fill:#f0f0f0"></rect><rect x="360.42" y="239.38" width="2.27" height="2.27" style="fill:#f0f0f0"></rect><rect x="360.42" y="243.19" width="2.27" height="2.27" style="fill:#f0f0f0"></rect><rect x="360.42" y="247" width="2.27" height="2.27" style="fill:#f0f0f0"></rect><rect x="360.42" y="250.81" width="2.27" height="2.27" style="fill:#f0f0f0"></rect><rect x="360.42" y="254.62" width="2.27" height="2.27" style="fill:#f0f0f0"></rect><rect x="360.42" y="258.43" width="2.27" height="2.27" style="fill:#f0f0f0"></rect><rect x="360.42" y="262.24" width="2.27" height="2.27" style="fill:#f0f0f0"></rect><rect x="360.42" y="273.67" width="2.27" height="2.27" style="fill:#f0f0f0"></rect><rect x="360.42" y="277.48" width="2.27" height="2.27" style="fill:#f0f0f0"></rect><rect x="360.42" y="281.29" width="2.27" height="2.27" style="fill:#f0f0f0"></rect><rect x="398.26" y="197.45" width="2.27" height="2.27" style="fill:#f0f0f0"></rect><rect x="398.26" y="201.27" width="2.27" height="2.27" style="fill:#f0f0f0"></rect><rect x="398.26" y="205.08" width="2.27" height="2.27" style="fill:#f0f0f0"></rect><rect x="398.26" y="208.89" width="2.27" height="2.27" style="fill:#f0f0f0"></rect><rect x="398.26" y="212.7" width="2.27" height="2.27" style="fill:#f0f0f0"></rect><rect x="398.26" y="216.51" width="2.27" height="2.27" style="fill:#f0f0f0"></rect><rect x="398.26" y="220.32" width="2.27" height="2.27" style="fill:#f0f0f0"></rect><rect x="398.26" y="224.13" width="2.27" height="2.27" style="fill:#f0f0f0"></rect><rect x="398.26" y="227.94" width="2.27" height="2.27" style="fill:#f0f0f0"></rect><rect x="398.26" y="231.75" width="2.27" height="2.27" style="fill:#f0f0f0"></rect><rect x="398.26" y="235.56" width="2.27" height="2.27" style="fill:#f0f0f0"></rect><rect x="398.26" y="239.38" width="2.27" height="2.27" style="fill:#f0f0f0"></rect><rect x="398.26" y="243.19" width="2.27" height="2.27" style="fill:#f0f0f0"></rect><rect x="398.26" y="247" width="2.27" height="2.27" style="fill:#f0f0f0"></rect><rect x="398.26" y="250.81" width="2.27" height="2.27" style="fill:#f0f0f0"></rect><rect x="398.26" y="254.62" width="2.27" height="2.27" style="fill:#f0f0f0"></rect><rect x="398.26" y="258.43" width="2.27" height="2.27" style="fill:#f0f0f0"></rect><rect x="398.26" y="262.24" width="2.27" height="2.27" style="fill:#f0f0f0"></rect><rect x="398.26" y="266.05" width="2.27" height="2.27" style="fill:#f0f0f0"></rect><rect x="398.26" y="269.86" width="2.27" height="2.27" style="fill:#f0f0f0"></rect><rect x="398.26" y="273.67" width="2.27" height="2.27" style="fill:#f0f0f0"></rect><rect x="398.26" y="277.48" width="2.27" height="2.27" style="fill:#f0f0f0"></rect><rect x="398.26" y="281.29" width="2.27" height="2.27" style="fill:#f0f0f0"></rect><rect x="401.87" y="197.45" width="2.27" height="2.27" style="fill:#f0f0f0"></rect><rect x="401.87" y="201.27" width="2.27" height="2.27" style="fill:#f0f0f0"></rect><rect x="401.87" y="205.08" width="2.27" height="2.27" style="fill:#f0f0f0"></rect><rect x="401.87" y="208.89" width="2.27" height="2.27" style="fill:#f0f0f0"></rect><rect x="401.87" y="212.7" width="2.27" height="2.27" style="fill:#f0f0f0"></rect><rect x="401.87" y="216.51" width="2.27" height="2.27" style="fill:#f0f0f0"></rect><rect x="401.87" y="220.32" width="2.27" height="2.27" style="fill:#f0f0f0"></rect><rect x="401.87" y="224.13" width="2.27" height="2.27" style="fill:#f0f0f0"></rect><rect x="401.87" y="227.94" width="2.27" height="2.27" style="fill:#f0f0f0"></rect><rect x="401.87" y="231.75" width="2.27" height="2.27" style="fill:#f0f0f0"></rect><rect x="401.87" y="235.56" width="2.27" height="2.27" style="fill:#f0f0f0"></rect><rect x="401.87" y="239.38" width="2.27" height="2.27" style="fill:#f0f0f0"></rect><rect x="401.87" y="243.19" width="2.27" height="2.27" style="fill:#f0f0f0"></rect><rect x="401.87" y="247" width="2.27" height="2.27" style="fill:#f0f0f0"></rect><rect x="401.87" y="250.81" width="2.27" height="2.27" style="fill:#f0f0f0"></rect><rect x="401.87" y="254.62" width="2.27" height="2.27" style="fill:#f0f0f0"></rect><rect x="401.87" y="258.43" width="2.27" height="2.27" style="fill:#f0f0f0"></rect><rect x="401.87" y="262.24" width="2.27" height="2.27" style="fill:#f0f0f0"></rect><rect x="401.87" y="266.05" width="2.27" height="2.27" style="fill:#f0f0f0"></rect><rect x="405.48" y="197.45" width="2.27" height="2.27" style="fill:#f0f0f0"></rect><rect x="405.48" y="201.27" width="2.27" height="2.27" style="fill:#f0f0f0"></rect><rect x="405.48" y="205.08" width="2.27" height="2.27" style="fill:#f0f0f0"></rect><rect x="405.48" y="208.89" width="2.27" height="2.27" style="fill:#f0f0f0"></rect><rect x="405.48" y="212.7" width="2.27" height="2.27" style="fill:#f0f0f0"></rect><rect x="405.48" y="216.51" width="2.27" height="2.27" style="fill:#f0f0f0"></rect><rect x="405.48" y="220.32" width="2.27" height="2.27" style="fill:#f0f0f0"></rect><rect x="405.48" y="224.13" width="2.27" height="2.27" style="fill:#f0f0f0"></rect><rect x="405.48" y="227.94" width="2.27" height="2.27" style="fill:#f0f0f0"></rect><rect x="405.48" y="231.75" width="2.27" height="2.27" style="fill:#f0f0f0"></rect><rect x="405.48" y="235.56" width="2.27" height="2.27" style="fill:#f0f0f0"></rect><rect x="405.48" y="239.38" width="2.27" height="2.27" style="fill:#f0f0f0"></rect><rect x="405.48" y="243.19" width="2.27" height="2.27" style="fill:#f0f0f0"></rect><rect x="405.48" y="247" width="2.27" height="2.27" style="fill:#f0f0f0"></rect><rect x="405.48" y="250.81" width="2.27" height="2.27" style="fill:#f0f0f0"></rect><rect x="405.48" y="254.62" width="2.27" height="2.27" style="fill:#f0f0f0"></rect><rect x="405.48" y="258.43" width="2.27" height="2.27" style="fill:#f0f0f0"></rect><rect x="405.48" y="262.24" width="2.27" height="2.27" style="fill:#f0f0f0"></rect><rect x="405.48" y="266.05" width="2.27" height="2.27" style="fill:#f0f0f0"></rect><rect x="409.09" y="197.45" width="2.27" height="2.27" style="fill:#f0f0f0"></rect><rect x="409.09" y="201.27" width="2.27" height="2.27" style="fill:#f0f0f0"></rect><rect x="409.09" y="205.08" width="2.27" height="2.27" style="fill:#f0f0f0"></rect><rect x="409.09" y="208.89" width="2.27" height="2.27" style="fill:#f0f0f0"></rect><rect x="409.09" y="212.7" width="2.27" height="2.27" style="fill:#f0f0f0"></rect><rect x="409.09" y="216.51" width="2.27" height="2.27" style="fill:#f0f0f0"></rect><rect x="409.09" y="220.32" width="2.27" height="2.27" style="fill:#f0f0f0"></rect><rect x="409.09" y="224.13" width="2.27" height="2.27" style="fill:#f0f0f0"></rect><rect x="409.09" y="227.94" width="2.27" height="2.27" style="fill:#f0f0f0"></rect><rect x="409.09" y="231.75" width="2.27" height="2.27" style="fill:#f0f0f0"></rect><rect x="409.09" y="235.56" width="2.27" height="2.27" style="fill:#f0f0f0"></rect><rect x="409.09" y="239.38" width="2.27" height="2.27" style="fill:#f0f0f0"></rect><rect x="409.09" y="243.19" width="2.27" height="2.27" style="fill:#f0f0f0"></rect><rect x="409.09" y="247" width="2.27" height="2.27" style="fill:#f0f0f0"></rect><rect x="409.09" y="250.81" width="2.27" height="2.27" style="fill:#f0f0f0"></rect><rect x="412.7" y="197.45" width="2.27" height="2.27" style="fill:#f0f0f0"></rect><rect x="412.7" y="201.27" width="2.27" height="2.27" style="fill:#f0f0f0"></rect><rect x="412.7" y="205.08" width="2.27" height="2.27" style="fill:#f0f0f0"></rect><rect x="412.7" y="208.89" width="2.27" height="2.27" style="fill:#f0f0f0"></rect><rect x="412.7" y="212.7" width="2.27" height="2.27" style="fill:#f0f0f0"></rect><rect x="412.7" y="216.51" width="2.27" height="2.27" style="fill:#f0f0f0"></rect><rect x="412.7" y="220.32" width="2.27" height="2.27" style="fill:#f0f0f0"></rect><rect x="412.7" y="224.13" width="2.27" height="2.27" style="fill:#f0f0f0"></rect><rect x="412.7" y="227.94" width="2.27" height="2.27" style="fill:#f0f0f0"></rect><rect x="412.7" y="231.75" width="2.27" height="2.27" style="fill:#f0f0f0"></rect><rect x="412.7" y="235.56" width="2.27" height="2.27" style="fill:#f0f0f0"></rect><rect x="412.7" y="239.38" width="2.27" height="2.27" style="fill:#f0f0f0"></rect><rect x="412.7" y="243.19" width="2.27" height="2.27" style="fill:#f0f0f0"></rect><rect x="416.32" y="197.45" width="2.27" height="2.27" style="fill:#f0f0f0"></rect><rect x="416.32" y="201.27" width="2.27" height="2.27" style="fill:#f0f0f0"></rect><rect x="416.32" y="205.08" width="2.27" height="2.27" style="fill:#f0f0f0"></rect><rect x="416.32" y="208.89" width="2.27" height="2.27" style="fill:#f0f0f0"></rect><rect x="416.32" y="212.7" width="2.27" height="2.27" style="fill:#f0f0f0"></rect><rect x="416.32" y="216.51" width="2.27" height="2.27" style="fill:#f0f0f0"></rect><rect x="416.32" y="220.32" width="2.27" height="2.27" style="fill:#f0f0f0"></rect><rect x="416.32" y="224.13" width="2.27" height="2.27" style="fill:#f0f0f0"></rect><rect x="416.32" y="227.94" width="2.27" height="2.27" style="fill:#f0f0f0"></rect><rect x="416.32" y="231.75" width="2.27" height="2.27" style="fill:#f0f0f0"></rect><rect x="416.32" y="235.56" width="2.27" height="2.27" style="fill:#f0f0f0"></rect><rect x="416.32" y="239.38" width="2.27" height="2.27" style="fill:#f0f0f0"></rect><rect x="205.58" y="196.32" width="2.27" height="2.27" style="fill:#f0f0f0"></rect><rect x="205.58" y="200.13" width="2.27" height="2.27" style="fill:#f0f0f0"></rect><rect x="205.58" y="203.94" width="2.27" height="2.27" style="fill:#f0f0f0"></rect><rect x="205.58" y="207.75" width="2.27" height="2.27" style="fill:#f0f0f0"></rect><rect x="205.58" y="211.56" width="2.27" height="2.27" style="fill:#f0f0f0"></rect><rect x="205.58" y="215.37" width="2.27" height="2.27" style="fill:#f0f0f0"></rect><rect x="205.58" y="219.18" width="2.27" height="2.27" style="fill:#f0f0f0"></rect><rect x="205.58" y="222.99" width="2.27" height="2.27" style="fill:#f0f0f0"></rect><rect x="205.58" y="226.81" width="2.27" height="2.27" style="fill:#f0f0f0"></rect><rect x="205.58" y="230.62" width="2.27" height="2.27" style="fill:#f0f0f0"></rect><rect x="205.58" y="234.43" width="2.27" height="2.27" style="fill:#f0f0f0"></rect><rect x="205.58" y="238.24" width="2.27" height="2.27" style="fill:#f0f0f0"></rect><rect x="205.58" y="242.05" width="2.27" height="2.27" style="fill:#f0f0f0"></rect><rect x="205.58" y="245.86" width="2.27" height="2.27" style="fill:#f0f0f0"></rect><rect x="205.58" y="249.67" width="2.27" height="2.27" style="fill:#f0f0f0"></rect><rect x="205.58" y="253.48" width="2.27" height="2.27" style="fill:#f0f0f0"></rect><rect x="205.58" y="257.29" width="2.27" height="2.27" style="fill:#f0f0f0"></rect><rect x="205.58" y="264.91" width="2.27" height="2.27" style="fill:#f0f0f0"></rect><rect x="205.58" y="268.73" width="2.27" height="2.27" style="fill:#f0f0f0"></rect><rect x="205.58" y="272.54" width="2.27" height="2.27" style="fill:#f0f0f0"></rect><rect x="205.58" y="276.35" width="2.27" height="2.27" style="fill:#f0f0f0"></rect><rect x="205.58" y="280.16" width="2.27" height="2.27" style="fill:#f0f0f0"></rect><rect x="209.19" y="196.32" width="2.27" height="2.27" style="fill:#f0f0f0"></rect><rect x="209.19" y="200.13" width="2.27" height="2.27" style="fill:#f0f0f0"></rect><rect x="209.19" y="203.94" width="2.27" height="2.27" style="fill:#f0f0f0"></rect><rect x="209.19" y="207.75" width="2.27" height="2.27" style="fill:#f0f0f0"></rect><rect x="209.19" y="211.56" width="2.27" height="2.27" style="fill:#f0f0f0"></rect><rect x="209.19" y="215.37" width="2.27" height="2.27" style="fill:#f0f0f0"></rect><rect x="209.19" y="219.18" width="2.27" height="2.27" style="fill:#f0f0f0"></rect><rect x="209.19" y="222.99" width="2.27" height="2.27" style="fill:#f0f0f0"></rect><rect x="209.19" y="226.81" width="2.27" height="2.27" style="fill:#f0f0f0"></rect><rect x="209.19" y="230.62" width="2.27" height="2.27" style="fill:#f0f0f0"></rect><rect x="209.19" y="234.43" width="2.27" height="2.27" style="fill:#f0f0f0"></rect><rect x="209.19" y="238.24" width="2.27" height="2.27" style="fill:#f0f0f0"></rect><rect x="209.19" y="242.05" width="2.27" height="2.27" style="fill:#f0f0f0"></rect><rect x="209.19" y="245.86" width="2.27" height="2.27" style="fill:#f0f0f0"></rect><rect x="209.19" y="249.67" width="2.27" height="2.27" style="fill:#f0f0f0"></rect><rect x="209.19" y="253.48" width="2.27" height="2.27" style="fill:#f0f0f0"></rect><rect x="209.19" y="276.35" width="2.27" height="2.27" style="fill:#f0f0f0"></rect><rect x="209.19" y="280.16" width="2.27" height="2.27" style="fill:#f0f0f0"></rect><rect x="212.8" y="196.32" width="2.27" height="2.27" style="fill:#f0f0f0"></rect><rect x="212.8" y="200.13" width="2.27" height="2.27" style="fill:#f0f0f0"></rect><rect x="212.8" y="203.94" width="2.27" height="2.27" style="fill:#f0f0f0"></rect><rect x="212.8" y="207.75" width="2.27" height="2.27" style="fill:#f0f0f0"></rect><rect x="212.8" y="211.56" width="2.27" height="2.27" style="fill:#f0f0f0"></rect><rect x="212.8" y="215.37" width="2.27" height="2.27" style="fill:#f0f0f0"></rect><rect x="212.8" y="219.18" width="2.27" height="2.27" style="fill:#f0f0f0"></rect><rect x="212.8" y="222.99" width="2.27" height="2.27" style="fill:#f0f0f0"></rect><rect x="212.8" y="226.81" width="2.27" height="2.27" style="fill:#f0f0f0"></rect><rect x="212.8" y="230.62" width="2.27" height="2.27" style="fill:#f0f0f0"></rect><rect x="212.8" y="234.43" width="2.27" height="2.27" style="fill:#f0f0f0"></rect><rect x="212.8" y="238.24" width="2.27" height="2.27" style="fill:#f0f0f0"></rect><rect x="212.8" y="242.05" width="2.27" height="2.27" style="fill:#f0f0f0"></rect><rect x="212.8" y="245.86" width="2.27" height="2.27" style="fill:#f0f0f0"></rect><rect x="212.8" y="249.67" width="2.27" height="2.27" style="fill:#f0f0f0"></rect><rect x="212.8" y="253.48" width="2.27" height="2.27" style="fill:#f0f0f0"></rect><rect x="212.8" y="261.1" width="2.27" height="2.27" style="fill:#f0f0f0"></rect><rect x="212.8" y="264.91" width="2.27" height="2.27" style="fill:#f0f0f0"></rect><rect x="212.8" y="268.73" width="2.27" height="2.27" style="fill:#f0f0f0"></rect><rect x="212.8" y="272.54" width="2.27" height="2.27" style="fill:#f0f0f0"></rect><rect x="212.8" y="280.16" width="2.27" height="2.27" style="fill:#f0f0f0"></rect><rect x="275.78" y="222.99" width="2.27" height="2.27" style="fill:#f0f0f0"></rect><rect x="275.78" y="226.81" width="2.27" height="2.27" style="fill:#f0f0f0"></rect><rect x="275.78" y="230.62" width="2.27" height="2.27" style="fill:#f0f0f0"></rect><rect x="275.78" y="234.43" width="2.27" height="2.27" style="fill:#f0f0f0"></rect><rect x="275.78" y="238.24" width="2.27" height="2.27" style="fill:#f0f0f0"></rect><rect x="275.78" y="242.05" width="2.27" height="2.27" style="fill:#f0f0f0"></rect><rect x="275.78" y="245.86" width="2.27" height="2.27" style="fill:#f0f0f0"></rect><rect x="275.78" y="249.67" width="2.27" height="2.27" style="fill:#f0f0f0"></rect><rect x="275.78" y="253.48" width="2.27" height="2.27" style="fill:#f0f0f0"></rect><rect x="275.78" y="257.29" width="2.27" height="2.27" style="fill:#f0f0f0"></rect><rect x="275.78" y="261.1" width="2.27" height="2.27" style="fill:#f0f0f0"></rect><rect x="275.78" y="264.91" width="2.27" height="2.27" style="fill:#f0f0f0"></rect><rect x="275.78" y="268.73" width="2.27" height="2.27" style="fill:#f0f0f0"></rect><rect x="275.78" y="276.35" width="2.27" height="2.27" style="fill:#f0f0f0"></rect><rect x="275.78" y="280.16" width="2.27" height="2.27" style="fill:#f0f0f0"></rect><rect x="275.78" y="283.97" width="2.27" height="2.27" style="fill:#f0f0f0"></rect><rect x="275.78" y="287.78" width="2.27" height="2.27" style="fill:#f0f0f0"></rect><rect x="275.78" y="295.4" width="2.27" height="2.27" style="fill:#f0f0f0"></rect><rect x="275.78" y="299.21" width="2.27" height="2.27" style="fill:#f0f0f0"></rect><rect x="275.78" y="303.02" width="2.27" height="2.27" style="fill:#f0f0f0"></rect><rect x="279.39" y="222.99" width="2.27" height="2.27" style="fill:#f0f0f0"></rect><rect x="279.39" y="226.81" width="2.27" height="2.27" style="fill:#f0f0f0"></rect><rect x="279.39" y="230.62" width="2.27" height="2.27" style="fill:#f0f0f0"></rect><rect x="279.39" y="234.43" width="2.27" height="2.27" style="fill:#f0f0f0"></rect><rect x="279.39" y="238.24" width="2.27" height="2.27" style="fill:#f0f0f0"></rect><rect x="279.39" y="242.05" width="2.27" height="2.27" style="fill:#f0f0f0"></rect><rect x="279.39" y="245.86" width="2.27" height="2.27" style="fill:#f0f0f0"></rect><rect x="279.39" y="249.67" width="2.27" height="2.27" style="fill:#f0f0f0"></rect><rect x="279.39" y="253.48" width="2.27" height="2.27" style="fill:#f0f0f0"></rect><rect x="279.39" y="257.29" width="2.27" height="2.27" style="fill:#f0f0f0"></rect><rect x="279.39" y="261.1" width="2.27" height="2.27" style="fill:#f0f0f0"></rect><rect x="279.39" y="264.91" width="2.27" height="2.27" style="fill:#f0f0f0"></rect><rect x="279.39" y="268.73" width="2.27" height="2.27" style="fill:#f0f0f0"></rect><rect x="279.39" y="280.16" width="2.27" height="2.27" style="fill:#f0f0f0"></rect><rect x="279.39" y="283.97" width="2.27" height="2.27" style="fill:#f0f0f0"></rect><rect x="279.39" y="291.59" width="2.27" height="2.27" style="fill:#f0f0f0"></rect><rect x="279.39" y="295.4" width="2.27" height="2.27" style="fill:#f0f0f0"></rect><rect x="279.39" y="299.21" width="2.27" height="2.27" style="fill:#f0f0f0"></rect><rect x="279.39" y="303.02" width="2.27" height="2.27" style="fill:#f0f0f0"></rect><rect x="283" y="222.99" width="2.27" height="2.27" style="fill:#f0f0f0"></rect><rect x="283" y="226.81" width="2.27" height="2.27" style="fill:#f0f0f0"></rect><rect x="283" y="230.62" width="2.27" height="2.27" style="fill:#f0f0f0"></rect><rect x="283" y="234.43" width="2.27" height="2.27" style="fill:#f0f0f0"></rect><rect x="283" y="238.24" width="2.27" height="2.27" style="fill:#f0f0f0"></rect><rect x="283" y="242.05" width="2.27" height="2.27" style="fill:#f0f0f0"></rect><rect x="283" y="245.86" width="2.27" height="2.27" style="fill:#f0f0f0"></rect><rect x="283" y="249.67" width="2.27" height="2.27" style="fill:#f0f0f0"></rect><rect x="283" y="253.48" width="2.27" height="2.27" style="fill:#f0f0f0"></rect><rect x="283" y="257.29" width="2.27" height="2.27" style="fill:#f0f0f0"></rect><rect x="283" y="261.1" width="2.27" height="2.27" style="fill:#f0f0f0"></rect><rect x="283" y="264.91" width="2.27" height="2.27" style="fill:#f0f0f0"></rect><rect x="283" y="268.73" width="2.27" height="2.27" style="fill:#f0f0f0"></rect><rect x="283" y="272.54" width="2.27" height="2.27" style="fill:#f0f0f0"></rect><rect x="283" y="280.16" width="2.27" height="2.27" style="fill:#f0f0f0"></rect><rect x="283" y="287.78" width="2.27" height="2.27" style="fill:#f0f0f0"></rect><rect x="283" y="291.59" width="2.27" height="2.27" style="fill:#f0f0f0"></rect><rect x="283" y="295.4" width="2.27" height="2.27" style="fill:#f0f0f0"></rect><rect x="283" y="299.21" width="2.27" height="2.27" style="fill:#f0f0f0"></rect><rect x="283" y="303.02" width="2.27" height="2.27" style="fill:#f0f0f0"></rect><rect x="261.07" y="244.72" width="2.27" height="2.27" style="fill:#f0f0f0"></rect><rect x="261.07" y="248.53" width="2.27" height="2.27" style="fill:#f0f0f0"></rect><rect x="261.07" y="252.35" width="2.27" height="2.27" style="fill:#f0f0f0"></rect><rect x="261.07" y="256.16" width="2.27" height="2.27" style="fill:#f0f0f0"></rect><rect x="261.07" y="259.97" width="2.27" height="2.27" style="fill:#f0f0f0"></rect><rect x="261.07" y="263.78" width="2.27" height="2.27" style="fill:#f0f0f0"></rect><rect x="261.07" y="275.21" width="2.27" height="2.27" style="fill:#f0f0f0"></rect><rect x="261.07" y="279.02" width="2.27" height="2.27" style="fill:#f0f0f0"></rect><rect x="261.07" y="282.83" width="2.27" height="2.27" style="fill:#f0f0f0"></rect><rect x="261.07" y="286.64" width="2.27" height="2.27" style="fill:#f0f0f0"></rect><rect x="261.07" y="290.45" width="2.27" height="2.27" style="fill:#f0f0f0"></rect><rect x="261.07" y="294.27" width="2.27" height="2.27" style="fill:#f0f0f0"></rect><rect x="261.07" y="298.08" width="2.27" height="2.27" style="fill:#f0f0f0"></rect><rect x="264.68" y="244.72" width="2.27" height="2.27" style="fill:#f0f0f0"></rect><rect x="264.68" y="248.53" width="2.27" height="2.27" style="fill:#f0f0f0"></rect><rect x="264.68" y="252.35" width="2.27" height="2.27" style="fill:#f0f0f0"></rect><rect x="264.68" y="256.16" width="2.27" height="2.27" style="fill:#f0f0f0"></rect><rect x="264.68" y="259.97" width="2.27" height="2.27" style="fill:#f0f0f0"></rect><rect x="264.68" y="263.78" width="2.27" height="2.27" style="fill:#f0f0f0"></rect><rect x="264.68" y="275.21" width="2.27" height="2.27" style="fill:#f0f0f0"></rect><rect x="264.68" y="279.02" width="2.27" height="2.27" style="fill:#f0f0f0"></rect><rect x="264.68" y="282.83" width="2.27" height="2.27" style="fill:#f0f0f0"></rect><rect x="264.68" y="286.64" width="2.27" height="2.27" style="fill:#f0f0f0"></rect><rect x="264.68" y="290.45" width="2.27" height="2.27" style="fill:#f0f0f0"></rect><rect x="264.68" y="294.27" width="2.27" height="2.27" style="fill:#f0f0f0"></rect><rect x="264.68" y="301.89" width="2.27" height="2.27" style="fill:#f0f0f0"></rect><rect x="384.62" y="227.94" width="2.27" height="2.27" style="fill:#f0f0f0"></rect><rect x="384.62" y="231.75" width="2.27" height="2.27" style="fill:#f0f0f0"></rect><rect x="384.62" y="235.56" width="2.27" height="2.27" style="fill:#f0f0f0"></rect><rect x="384.62" y="239.38" width="2.27" height="2.27" style="fill:#f0f0f0"></rect><rect x="384.62" y="243.19" width="2.27" height="2.27" style="fill:#f0f0f0"></rect><rect x="384.62" y="247" width="2.27" height="2.27" style="fill:#f0f0f0"></rect><rect x="384.62" y="250.81" width="2.27" height="2.27" style="fill:#f0f0f0"></rect><rect x="384.62" y="254.62" width="2.27" height="2.27" style="fill:#f0f0f0"></rect><rect x="384.62" y="258.43" width="2.27" height="2.27" style="fill:#f0f0f0"></rect><rect x="384.62" y="262.24" width="2.27" height="2.27" style="fill:#f0f0f0"></rect><rect x="384.62" y="266.05" width="2.27" height="2.27" style="fill:#f0f0f0"></rect><rect x="384.62" y="273.67" width="2.27" height="2.27" style="fill:#f0f0f0"></rect><rect x="384.62" y="277.48" width="2.27" height="2.27" style="fill:#f0f0f0"></rect><rect x="384.62" y="281.29" width="2.27" height="2.27" style="fill:#f0f0f0"></rect><rect x="384.62" y="285.11" width="2.27" height="2.27" style="fill:#f0f0f0"></rect><rect x="384.62" y="288.92" width="2.27" height="2.27" style="fill:#f0f0f0"></rect><rect x="384.62" y="292.73" width="2.27" height="2.27" style="fill:#f0f0f0"></rect><rect x="384.62" y="296.54" width="2.27" height="2.27" style="fill:#f0f0f0"></rect><rect x="384.62" y="300.35" width="2.27" height="2.27" style="fill:#f0f0f0"></rect><rect x="388.24" y="227.94" width="2.27" height="2.27" style="fill:#f0f0f0"></rect><rect x="388.24" y="231.75" width="2.27" height="2.27" style="fill:#f0f0f0"></rect><rect x="388.24" y="235.56" width="2.27" height="2.27" style="fill:#f0f0f0"></rect><rect x="388.24" y="239.38" width="2.27" height="2.27" style="fill:#f0f0f0"></rect><rect x="388.24" y="243.19" width="2.27" height="2.27" style="fill:#f0f0f0"></rect><rect x="388.24" y="247" width="2.27" height="2.27" style="fill:#f0f0f0"></rect><rect x="388.24" y="250.81" width="2.27" height="2.27" style="fill:#f0f0f0"></rect><rect x="388.24" y="254.62" width="2.27" height="2.27" style="fill:#f0f0f0"></rect><rect x="388.24" y="258.43" width="2.27" height="2.27" style="fill:#f0f0f0"></rect><rect x="388.24" y="262.24" width="2.27" height="2.27" style="fill:#f0f0f0"></rect><rect x="388.24" y="266.05" width="2.27" height="2.27" style="fill:#f0f0f0"></rect><rect x="388.24" y="269.86" width="2.27" height="2.27" style="fill:#f0f0f0"></rect><rect x="388.24" y="273.67" width="2.27" height="2.27" style="fill:#f0f0f0"></rect><rect x="388.24" y="277.48" width="2.27" height="2.27" style="fill:#f0f0f0"></rect><rect x="388.24" y="281.29" width="2.27" height="2.27" style="fill:#f0f0f0"></rect><rect x="388.24" y="285.11" width="2.27" height="2.27" style="fill:#f0f0f0"></rect><rect x="388.24" y="288.92" width="2.27" height="2.27" style="fill:#f0f0f0"></rect><rect x="388.24" y="292.73" width="2.27" height="2.27" style="fill:#f0f0f0"></rect><rect x="388.24" y="296.54" width="2.27" height="2.27" style="fill:#f0f0f0"></rect><rect x="388.24" y="300.35" width="2.27" height="2.27" style="fill:#f0f0f0"></rect><rect x="366.84" y="242.78" width="2.27" height="2.27" style="fill:#f0f0f0"></rect><rect x="366.84" y="246.6" width="2.27" height="2.27" style="fill:#f0f0f0"></rect><rect x="366.84" y="250.41" width="2.27" height="2.27" style="fill:#f0f0f0"></rect><rect x="366.84" y="254.22" width="2.27" height="2.27" style="fill:#f0f0f0"></rect><rect x="366.84" y="258.03" width="2.27" height="2.27" style="fill:#f0f0f0"></rect><rect x="366.84" y="261.84" width="2.27" height="2.27" style="fill:#f0f0f0"></rect><rect x="366.84" y="265.65" width="2.27" height="2.27" style="fill:#f0f0f0"></rect><rect x="366.84" y="269.46" width="2.27" height="2.27" style="fill:#f0f0f0"></rect><rect x="366.84" y="273.27" width="2.27" height="2.27" style="fill:#f0f0f0"></rect><rect x="366.84" y="277.08" width="2.27" height="2.27" style="fill:#f0f0f0"></rect><rect x="370.45" y="242.78" width="2.27" height="2.27" style="fill:#f0f0f0"></rect><rect x="370.45" y="246.6" width="2.27" height="2.27" style="fill:#f0f0f0"></rect><rect x="370.45" y="250.41" width="2.27" height="2.27" style="fill:#f0f0f0"></rect><rect x="370.45" y="254.22" width="2.27" height="2.27" style="fill:#f0f0f0"></rect><rect x="370.45" y="258.03" width="2.27" height="2.27" style="fill:#f0f0f0"></rect><rect x="370.45" y="261.84" width="2.27" height="2.27" style="fill:#f0f0f0"></rect><rect x="370.45" y="265.65" width="2.27" height="2.27" style="fill:#f0f0f0"></rect><rect x="370.45" y="269.46" width="2.27" height="2.27" style="fill:#f0f0f0"></rect><rect x="370.45" y="273.27" width="2.27" height="2.27" style="fill:#f0f0f0"></rect><rect x="348.97" y="98.16" width="3.82" height="212.55" style="fill:#e0e0e0"></rect><rect x="277.2" y="98.16" width="3.82" height="212.55" style="fill:#e0e0e0"></rect><rect x="205.43" y="98.16" width="3.82" height="212.55" style="fill:#e0e0e0"></rect><circle cx="129.85" cy="109.72" r="14.17" style="fill:#e0e0e0"></circle><circle cx="129.85" cy="109.72" r="12.05" style="fill:#f0f0f0"></circle><polyline points="130.42 101.46 130.42 109.88 136 106.72" style="fill:#f0f0f0"></polyline><path d="M130.42,110.88a1,1,0,0,1-.51-.14,1,1,0,0,1-.49-.86v-8.42a1,1,0,0,1,2,0v6.7l4.09-2.31a1,1,0,0,1,1,1.74l-5.58,3.16A1.05,1.05,0,0,1,130.42,110.88Z" style="fill:#e0e0e0"></path><rect x="81.8" y="120.11" width="92.9" height="119.55" transform="translate(308.14 51.64) rotate(90)" style="fill:#e0e0e0"></rect><rect x="70.13" y="135.09" width="116.24" height="89.59" style="fill:#ebebeb"></rect><rect x="79.91" y="146.1" width="13.55" height="19.15" style="fill:#f5f5f5"></rect><rect x="96.84" y="151.76" width="14.26" height="20.5" style="fill:#f5f5f5"></rect><rect x="79.55" y="194.31" width="14.26" height="20.5" transform="translate(27.42 -9.56) rotate(7.49)" style="fill:#f5f5f5"></rect><rect x="115.59" y="193.47" width="14.26" height="20.5" style="fill:#f5f5f5"></rect><rect x="98.55" y="191.31" width="14.26" height="20.5" style="fill:#f5f5f5"></rect><rect x="145.51" y="147.49" width="8.85" height="8.85" style="fill:#f5f5f5"></rect><rect x="157.08" y="148.31" width="8.85" height="8.85" transform="translate(65.26 -47.64) rotate(20.94)" style="fill:#f5f5f5"></rect><path d="M149.94,148.61a.52.52,0,1,1-.52-.51A.52.52,0,0,1,149.94,148.61Z" style="fill:#e0e0e0"></path><path d="M160.13,148.61a.52.52,0,0,1-.52.52.52.52,0,1,1,.52-.52Z" style="fill:#e0e0e0"></path><path d="M104.49,153.26a.52.52,0,0,1-1,0,.52.52,0,0,1,1,0Z" style="fill:#e0e0e0"></path><circle cx="86.68" cy="147.49" r="0.52" style="fill:#e0e0e0"></circle><path d="M82.34,194.94a.52.52,0,0,1-1,0,.52.52,0,1,1,1,0Z" style="fill:#e0e0e0"></path><circle cx="105.68" cy="192.48" r="0.52" style="fill:#e0e0e0"></circle><path d="M123.24,194.42a.52.52,0,1,1-.52-.52A.52.52,0,0,1,123.24,194.42Z" style="fill:#e0e0e0"></path><rect x="148.9" y="175.19" width="28.41" height="17.81" style="fill:#e0e0e0"></rect><rect x="142.78" y="195.46" width="24.8" height="19.58" style="fill:#e0e0e0"></rect><path d="M100.31,350.94c-.14-1-3.52-24.29,3.24-32.34a7.36,7.36,0,0,1,5.62-2.77c13.66-.32,15.53,10.66,15.55,10.77l-1.61.25c-.07-.4-1.69-9.68-13.9-9.39a5.7,5.7,0,0,0-4.41,2.19c-6.3,7.49-2.91,30.82-2.88,31.05Z" style="fill:#ebebeb"></path><path d="M99.49,349.88l-1.63-.05c0-.22.54-21.48-9.94-25.87-10.26-4.3-14.88,4.54-15.07,4.92l-1.46-.73c.06-.11,5.47-10.59,17.16-5.69C100.06,327.28,99.51,349,99.49,349.88Z" style="fill:#ebebeb"></path><path d="M99.53,351.55c0-.34-.09-34-6.65-43.8-6.29-9.44-16.45-5-16.88-4.8l-.67-1.48c.12-.06,11.83-5.23,18.91,5.38,6.82,10.24,6.92,43.29,6.92,44.7Z" style="fill:#ebebeb"></path><path d="M111.13,316.64s-6,2.2-4.19,7.39,20.63,13.73,20.63,13.73,7.89-7.23.64-19S111.29,312.93,111.13,316.64Z" style="fill:#e0e0e0"></path><path d="M92.58,306s4.24-.45,3.9-3-16.46-9.22-26,1.52c0,0,6.09,10.46,14.89,10.59S92.58,306,92.58,306Z" style="fill:#e0e0e0"></path><path d="M88.24,323.21s2.92-2.36-.23-3.51-18.63-.82-18.79,14.5c0,0,18,3,20.25-2.84S88.24,323.21,88.24,323.21Z" style="fill:#e0e0e0"></path><polygon points="114.33 382.17 86.37 382.17 83.35 351.55 117.35 351.55 114.33 382.17" style="fill:#ebebeb"></polygon><rect x="81.86" y="348.17" width="36.99" height="6.76" style="fill:#e0e0e0"></rect></g><g id="freepik--Shadow--inject-10"><ellipse id="freepik--path--inject-10" cx="250" cy="416.24" rx="193.89" ry="11.32" style="fill:#f5f5f5"></ellipse></g><g id="freepik--Cards--inject-10"><path d="M408.72,417H349.24a5.6,5.6,0,0,1-5.08-4l-25.75-96.11a3,3,0,0,1,2.93-4h59.49a5.59,5.59,0,0,1,5.07,4L411.65,413A3,3,0,0,1,408.72,417Z" style="fill:#F5C401"></path><path d="M408.72,417H349.24a5.6,5.6,0,0,1-5.08-4l-25.75-96.11a3,3,0,0,1,2.93-4h59.49a5.59,5.59,0,0,1,5.07,4L411.65,413A3,3,0,0,1,408.72,417Z" style="fill:#fff;opacity:0.6000000000000001"></path><polygon points="348.69 412.3 323.33 317.65 381.37 317.65 406.73 412.3 348.69 412.3" style="fill:#F5C401"></polygon><ellipse cx="365.03" cy="364.98" rx="32.98" ry="20.75" transform="translate(-44.46 679.26) rotate(-82.5)" style="fill:#fff;opacity:0.4"></ellipse><polygon points="358.72 341.42 347.76 356.38 356.19 356.38 357.98 363.06 371.06 363.06 369.27 356.38 377.7 356.38 358.72 341.42" style="fill:#fff"></polygon><polygon points="359.95 370.4 373.02 370.4 371.56 364.94 358.48 364.94 359.95 370.4" style="fill:#fff"></polygon><polygon points="361.33 375.55 374.4 375.55 373.69 372.9 360.62 372.9 361.33 375.55" style="fill:#fff"></polygon><polygon points="362.57 380.2 375.65 380.2 375.33 378.99 362.25 378.99 362.57 380.2" style="fill:#fff"></polygon><polygon points="364.23 386.4 377.31 386.4 377.15 385.79 364.07 385.79 364.23 386.4" style="fill:#fff"></polygon><path d="M408.72,417H349.24a5.6,5.6,0,0,1-5.08-4l-11.78-44-14-52.15a3,3,0,0,1,2.93-4h59.49a5.59,5.59,0,0,1,5.07,4l7.7,28.73,18,67.38A3,3,0,0,1,408.72,417Z" style="isolation:isolate;opacity:0.2"></path><path d="M393.6,345.65l-61.22,23.42-14-52.15a3,3,0,0,1,2.93-4h59.49a5.59,5.59,0,0,1,5.07,4Z" style="isolation:isolate;opacity:0.2"></path><path d="M350,417H290.54a3,3,0,0,1-2.93-4l25.75-96.11a5.61,5.61,0,0,1,5.08-4h59.49a3,3,0,0,1,2.93,4L355.11,413A5.61,5.61,0,0,1,350,417Z" style="fill:#F5C401"></path><path d="M350,417H290.54a3,3,0,0,1-2.93-4l25.75-96.11a5.61,5.61,0,0,1,5.08-4h59.49a3,3,0,0,1,2.93,4L355.11,413A5.61,5.61,0,0,1,350,417Z" style="fill:#fff;opacity:0.6000000000000001"></path><polygon points="292.54 412.3 317.9 317.65 375.93 317.65 350.57 412.3 292.54 412.3" style="fill:#F5C401"></polygon><ellipse cx="334.23" cy="364.98" rx="40.39" ry="16.94" transform="translate(-160.19 386.61) rotate(-50.02)" style="fill:#fff;opacity:0.4"></ellipse><path d="M338.92,377H323.1c-.69,0-1.16-.48-1-1.07h0a1.53,1.53,0,0,1,1.5-1.1h16.07c.7,0,1.11.49.9,1.1h0A1.78,1.78,0,0,1,338.92,377Z" style="fill:#fff"></path><path d="M337.46,380.22H322.84c-.67,0-1.13-.46-1-1h0a1.48,1.48,0,0,1,1.45-1.05h14.85c.69,0,1.09.47.9,1.05h0A1.71,1.71,0,0,1,337.46,380.22Z" style="fill:#fff"></path><path d="M336.07,383.27H322.6c-.66,0-1.11-.44-1-1h0a1.46,1.46,0,0,1,1.43-1H336.7c.67,0,1.07.45.89,1h0A1.66,1.66,0,0,1,336.07,383.27Z" style="fill:#fff"></path><path d="M324.23,384.3c-.25,1.08,1.66,1.94,4.26,1.94h.1c2.59,0,5-.86,5.3-1.94Z" style="fill:#fff"></path><path d="M340.67,363.62h-2.83a.33.33,0,0,1-.35-.28l-.23-1.9-2.79,4.05a.58.58,0,0,1-.5.27.33.33,0,0,1-.36-.28l-.52-4-1.2,1.91a.61.61,0,0,1-.51.29h-2.75c1.53,3.16.91,8.34.64,10.11h5.66A32.81,32.81,0,0,1,340.67,363.62Z" style="fill:#fff"></path><path d="M339.93,343.71c-9.31,0-18.15,7.66-19.58,16.19a11.07,11.07,0,0,0,3.22,10.34l0,3.57h4.8c.27-1.9.86-7.54-1-10.26a.41.41,0,0,1,0-.47.62.62,0,0,1,.48-.25h3.37L333,360a.64.64,0,0,1,.52-.3h0a.35.35,0,0,1,.37.3l.51,4.1,2.8-4.11a.66.66,0,0,1,.53-.29h0a.33.33,0,0,1,.36.29l.31,2.73h3.33a.33.33,0,0,1,.34.23.49.49,0,0,1-.17.46,30,30,0,0,0-6.12,10.38h4.33l1.95-3.57a21,21,0,0,0,8.76-10.34C354,351.37,349.25,343.71,339.93,343.71Z" style="fill:#fff"></path><path d="M348.56,417H289.08a5.59,5.59,0,0,1-5.08-4l-25.75-96.11a3,3,0,0,1,2.93-4h59.49a5.59,5.59,0,0,1,5.07,4L351.49,413A3,3,0,0,1,348.56,417Z" style="fill:#F5C401"></path><path d="M348.56,417H289.08a5.59,5.59,0,0,1-5.08-4l-25.75-96.11a3,3,0,0,1,2.93-4h59.49a5.59,5.59,0,0,1,5.07,4L351.49,413A3,3,0,0,1,348.56,417Z" style="fill:#fff;opacity:0.6000000000000001"></path><polygon points="288.54 412.3 263.17 317.65 321.21 317.65 346.57 412.3 288.54 412.3" style="fill:#F5C401"></polygon><ellipse cx="304.87" cy="364.98" rx="32.98" ry="20.75" transform="translate(-96.77 619.61) rotate(-82.5)" style="fill:#fff;opacity:0.4"></ellipse><path d="M311.52,374.92l-1-3.86-2-.19a14.53,14.53,0,0,0-2.44-3.56l.86-1.54L303.41,363l-1.2,1.28a13.2,13.2,0,0,0-4-1.48l-.71-2h-3.86l.34,2a7.58,7.58,0,0,0-3.16,1.48L289,363l-2,2.73,1.69,1.54a8.29,8.29,0,0,0-.53,3.56l-1.94.19,1,3.86,2,.18a14.4,14.4,0,0,0,2.44,3.57l-.86,1.54,3.45,2.73,1.2-1.28a13.69,13.69,0,0,0,4,1.48l.72,2H304l-.34-2a7.7,7.7,0,0,0,3.16-1.48l1.88,1.28,2-2.73-1.69-1.54a8.31,8.31,0,0,0,.53-3.57Zm-11.26,3.29a7.3,7.3,0,0,1-6.62-5.22c-.78-2.89.94-5.22,3.82-5.22a7.29,7.29,0,0,1,6.62,5.22C304.85,375.87,303.14,378.21,300.26,378.21Z" style="fill:#fff"></path><path d="M302.21,346.38a6,6,0,0,0-2.48,1.16l-1.48-1-1.56,2.14,1.32,1.21a6.66,6.66,0,0,0-.41,2.79l-1.52.15.81,3,1.6.15a11.16,11.16,0,0,0,1.91,2.79l-.68,1.21,2.71,2.13.94-1a10.66,10.66,0,0,0,3.11,1.16l.56,1.56h3l-.27-1.56a6,6,0,0,0,2.48-1.16l1.48,1,1.56-2.13L314,358.79a6.68,6.68,0,0,0,.41-2.79l1.52-.15-.81-3-1.6-.15a11,11,0,0,0-1.91-2.79l.68-1.21-2.71-2.14-.94,1a10.5,10.5,0,0,0-3.1-1.16l-.57-1.56h-3Zm7.88,8a3,3,0,0,1-3,4.09,5.72,5.72,0,0,1-5.19-4.09,3,3,0,0,1,3-4.09A5.72,5.72,0,0,1,310.09,354.34Z" style="fill:#fff"></path><path d="M313.08,364.69l-.94-.64-1,1.36.84.77a4.1,4.1,0,0,0-.26,1.77l-1,.09.52,1.92,1,.09a7.12,7.12,0,0,0,1.21,1.77l-.43.77,1.72,1.36.6-.64a6.54,6.54,0,0,0,2,.74l.36,1h1.91l-.17-1a3.79,3.79,0,0,0,1.58-.74l.93.64,1-1.36-.84-.77a4.23,4.23,0,0,0,.26-1.77l1-.09-.51-1.92-1-.09a7,7,0,0,0-1.21-1.77l.43-.77-1.72-1.36-.59.64a6.93,6.93,0,0,0-2-.74l-.36-1h-1.92l.17,1A3.94,3.94,0,0,0,313.08,364.69Zm6.57,4.31a1.92,1.92,0,0,1-1.9,2.6,3.65,3.65,0,0,1-3.29-2.6,1.93,1.93,0,0,1,1.9-2.6A3.63,3.63,0,0,1,319.65,369Z" style="fill:#fff"></path><path d="M348.56,417H289.08a5.59,5.59,0,0,1-5.08-4L277.82,390l-19.57-73a3,3,0,0,1,2.93-4h59.49a5.59,5.59,0,0,1,5.07,4L339,366.53,351.49,413A3,3,0,0,1,348.56,417Z" style="isolation:isolate;opacity:0.2"></path><path d="M339,366.53,277.82,390l-19.57-73a3,3,0,0,1,2.93-4h59.49a5.59,5.59,0,0,1,5.07,4Z" style="isolation:isolate;opacity:0.2"></path><path d="M380.84,312.81H321.36a5.6,5.6,0,0,1-5.08-4L290.53,212.7a3,3,0,0,1,2.93-4H353a5.59,5.59,0,0,1,5.07,4l25.75,96.11A3,3,0,0,1,380.84,312.81Z" style="fill:#F5C401"></path><path d="M380.84,312.81H321.36a5.6,5.6,0,0,1-5.08-4L290.53,212.7a3,3,0,0,1,2.93-4H353a5.59,5.59,0,0,1,5.07,4l25.75,96.11A3,3,0,0,1,380.84,312.81Z" style="fill:#fff;opacity:0.6000000000000001"></path><polygon points="320.82 308.08 295.45 213.43 353.49 213.43 378.85 308.08 320.82 308.08" style="fill:#F5C401"></polygon><ellipse cx="337.15" cy="260.75" rx="32.98" ry="20.75" transform="translate(34.63 560.99) rotate(-82.5)" style="fill:#fff;opacity:0.4"></ellipse><path d="M343.8,270.69l-1-3.85-2-.19a14.35,14.35,0,0,0-2.44-3.56l.86-1.54-3.46-2.73-1.19,1.27a13.69,13.69,0,0,0-4-1.48l-.72-2H326l.34,2a7.7,7.7,0,0,0-3.16,1.48l-1.89-1.27-2,2.73,1.69,1.54a8.26,8.26,0,0,0-.53,3.56l-1.94.19,1,3.85,2,.19a14.35,14.35,0,0,0,2.44,3.56l-.86,1.55,3.46,2.72,1.19-1.27a13.69,13.69,0,0,0,4,1.48l.72,2h3.86l-.34-2a7.7,7.7,0,0,0,3.16-1.48l1.89,1.27,2-2.72-1.69-1.55a8.26,8.26,0,0,0,.53-3.56ZM332.54,274a7.31,7.31,0,0,1-6.62-5.22c-.77-2.89.94-5.23,3.82-5.23a7.29,7.29,0,0,1,6.62,5.23C337.14,271.65,335.42,274,332.54,274Z" style="fill:#fff"></path><path d="M334.49,242.16a6.05,6.05,0,0,0-2.48,1.16l-1.47-1L329,244.46l1.32,1.2a6.71,6.71,0,0,0-.41,2.8l-1.52.14.81,3,1.6.14a11.06,11.06,0,0,0,1.91,2.79l-.68,1.21,2.71,2.14.94-1a10.66,10.66,0,0,0,3.11,1.16l.56,1.56h3l-.27-1.56a6,6,0,0,0,2.48-1.16l1.48,1,1.56-2.14-1.32-1.21a6.48,6.48,0,0,0,.41-2.79l1.52-.14-.81-3-1.6-.14a11.26,11.26,0,0,0-1.9-2.8l.67-1.2-2.71-2.14-.94,1a10.5,10.5,0,0,0-3.1-1.16l-.57-1.56h-3Zm7.88,8a3,3,0,0,1-3,4.1,5.74,5.74,0,0,1-5.19-4.1,3,3,0,0,1,3-4.09A5.71,5.71,0,0,1,342.37,250.11Z" style="fill:#fff"></path><path d="M345.36,260.47l-.94-.64-1,1.36.84.76a4.14,4.14,0,0,0-.26,1.78l-1,.09.51,1.92,1,.09a7.31,7.31,0,0,0,1.21,1.77l-.43.77,1.72,1.35.6-.63a6.82,6.82,0,0,0,2,.74l.36,1h1.91l-.17-1a3.91,3.91,0,0,0,1.58-.74l.93.63,1-1.35-.84-.77a4.25,4.25,0,0,0,.26-1.77l1-.09-.51-1.92-1-.09a7.41,7.41,0,0,0-1.22-1.78l.43-.76-1.72-1.36-.59.64a6.64,6.64,0,0,0-2-.74l-.36-1h-1.92l.17,1A3.81,3.81,0,0,0,345.36,260.47Zm6.57,4.31a1.92,1.92,0,0,1-1.9,2.59,3.64,3.64,0,0,1-3.29-2.59,1.93,1.93,0,0,1,1.9-2.6A3.61,3.61,0,0,1,351.93,264.78Z" style="fill:#fff"></path><path d="M380.84,312.81H321.36a5.6,5.6,0,0,1-5.08-4L290.53,212.7a3,3,0,0,1,2.93-4H353a5.59,5.59,0,0,1,5.07,4l25.75,96.11A3,3,0,0,1,380.84,312.81Z" style="isolation:isolate;opacity:0.2"></path><path d="M370.62,259.72l-61.49,22.41-18.6-69.43a3,3,0,0,1,2.93-4H353a5.59,5.59,0,0,1,5.07,4Z" style="isolation:isolate;opacity:0.2"></path><path d="M291.78,417H232.29a3,3,0,0,1-2.93-4l25.75-96.11a5.59,5.59,0,0,1,5.07-4h59.49a3,3,0,0,1,2.93,4L296.85,413A5.59,5.59,0,0,1,291.78,417Z" style="fill:#F5C401"></path><path d="M291.78,417H232.29a3,3,0,0,1-2.93-4l25.75-96.11a5.59,5.59,0,0,1,5.07-4h59.49a3,3,0,0,1,2.93,4L296.85,413A5.59,5.59,0,0,1,291.78,417Z" style="fill:#fff;opacity:0.6000000000000001"></path><polygon points="234.28 412.3 259.64 317.65 317.68 317.65 292.31 412.3 234.28 412.3" style="fill:#F5C401"></polygon><ellipse cx="275.98" cy="364.98" rx="40.39" ry="16.94" transform="translate(-181.01 341.97) rotate(-50.02)" style="fill:#fff;opacity:0.4"></ellipse><polygon points="282.29 341.42 263.31 356.38 271.74 356.38 269.95 363.06 283.03 363.06 284.82 356.38 293.25 356.38 282.29 341.42" style="fill:#fff"></polygon><polygon points="267.99 370.4 281.06 370.4 282.53 364.94 269.45 364.94 267.99 370.4" style="fill:#fff"></polygon><polygon points="266.61 375.55 279.68 375.55 280.39 372.9 267.32 372.9 266.61 375.55" style="fill:#fff"></polygon><polygon points="265.36 380.2 278.44 380.2 278.76 378.99 265.68 378.99 265.36 380.2" style="fill:#fff"></polygon><polygon points="263.7 386.4 276.78 386.4 276.94 385.79 263.86 385.79 263.7 386.4" style="fill:#fff"></polygon><path d="M322.05,312.81H262.57a3,3,0,0,1-2.93-4l25.75-96.11a5.59,5.59,0,0,1,5.07-4H350a3,3,0,0,1,2.93,4l-25.75,96.11A5.59,5.59,0,0,1,322.05,312.81Z" style="fill:#F5C401"></path><path d="M322.05,312.81H262.57a3,3,0,0,1-2.93-4l25.75-96.11a5.59,5.59,0,0,1,5.07-4H350a3,3,0,0,1,2.93,4l-25.75,96.11A5.59,5.59,0,0,1,322.05,312.81Z" style="fill:#fff;opacity:0.6000000000000001"></path><polygon points="264.56 308.08 289.92 213.43 347.96 213.43 322.6 308.08 264.56 308.08" style="fill:#F5C401"></polygon><ellipse cx="306.26" cy="260.75" rx="40.39" ry="16.94" transform="matrix(0.64, -0.77, 0.77, 0.64, -90.32, 327.91)" style="fill:#fff;opacity:0.4"></ellipse><polygon points="312.57 237.19 293.6 252.16 302.02 252.16 300.23 258.84 313.31 258.84 315.1 252.16 323.53 252.16 312.57 237.19" style="fill:#fff"></polygon><polygon points="298.27 266.18 311.35 266.18 312.81 260.72 299.73 260.72 298.27 266.18" style="fill:#fff"></polygon><polygon points="296.89 271.33 309.96 271.33 310.67 268.68 297.6 268.68 296.89 271.33" style="fill:#fff"></polygon><polygon points="295.64 275.98 308.72 275.98 309.04 274.77 295.96 274.77 295.64 275.98" style="fill:#fff"></polygon><polygon points="293.98 282.18 307.06 282.18 307.22 281.57 294.14 281.57 293.98 282.18" style="fill:#fff"></polygon><path d="M288.61,417H229.13a5.61,5.61,0,0,1-5.08-4L198.3,316.92a3,3,0,0,1,2.93-4h59.49a5.59,5.59,0,0,1,5.07,4L291.54,413A3,3,0,0,1,288.61,417Z" style="fill:#F5C401"></path><path d="M288.61,417H229.13a5.61,5.61,0,0,1-5.08-4L198.3,316.92a3,3,0,0,1,2.93-4h59.49a5.59,5.59,0,0,1,5.07,4L291.54,413A3,3,0,0,1,288.61,417Z" style="fill:#fff;opacity:0.6000000000000001"></path><polygon points="228.59 412.3 203.23 317.65 261.26 317.65 286.62 412.3 228.59 412.3" style="fill:#F5C401"></polygon><ellipse cx="244.92" cy="364.98" rx="32.98" ry="20.75" transform="translate(-148.89 560.18) rotate(-82.5)" style="fill:#fff;opacity:0.4"></ellipse><path d="M256.06,377H240.24a1.79,1.79,0,0,1-1.62-1.07h0c-.2-.61.21-1.1.91-1.1H255.6a1.53,1.53,0,0,1,1.5,1.1h0C257.22,376.53,256.75,377,256.06,377Z" style="fill:#fff"></path><path d="M256.31,380.22H241.7a1.71,1.71,0,0,1-1.57-1h0c-.19-.58.21-1.05.9-1.05h14.84a1.49,1.49,0,0,1,1.46,1.05h0C257.45,379.76,257,380.22,256.31,380.22Z" style="fill:#fff"></path><path d="M256.56,383.27H243.09a1.66,1.66,0,0,1-1.52-1h0c-.18-.55.22-1,.89-1h13.67a1.44,1.44,0,0,1,1.42,1h0C257.67,382.83,257.22,383.27,256.56,383.27Z" style="fill:#fff"></path><path d="M245.27,384.3c.33,1.08,2.7,1.94,5.3,1.94h.1c2.6,0,4.51-.86,4.26-1.94Z" style="fill:#fff"></path><path d="M250.63,363.62H247.8a.65.65,0,0,1-.5-.28l-1.25-1.9-.62,4.05a.31.31,0,0,1-.35.27.62.62,0,0,1-.51-.28l-2.65-4-.18,1.91a.32.32,0,0,1-.35.29h-2.75c3.22,3.16,5.38,8.34,6.05,10.11h5.66C249.41,368.38,250.17,365,250.63,363.62Z" style="fill:#fff"></path><path d="M239.22,343.71c-9.31,0-14.05,7.66-10.9,16.19a21,21,0,0,0,8.76,10.34l1.95,3.57h4.79c-.75-1.9-3.17-7.54-6.51-10.26a.52.52,0,0,1-.22-.47.32.32,0,0,1,.34-.25h3.37l.25-2.81a.34.34,0,0,1,.36-.3h0a.68.68,0,0,1,.54.3l2.7,4.1.59-4.11a.35.35,0,0,1,.37-.29h0a.62.62,0,0,1,.51.29l1.78,2.73h3.33a.65.65,0,0,1,.47.23.44.44,0,0,1,.07.46s-1.69,3.5-.56,10.38h4.34l0-3.57a11.1,11.1,0,0,0,3.22-10.34C257.38,351.37,248.54,343.71,239.22,343.71Z" style="fill:#fff"></path><path d="M288.61,417H229.13a5.61,5.61,0,0,1-5.08-4l-.61-2.28-23.05-86-2.09-7.82a3,3,0,0,1,1.31-3.61,3.32,3.32,0,0,1,1.62-.39h59.49a5.59,5.59,0,0,1,5.07,4l18.87,70.41,6.88,25.7A3,3,0,0,1,288.61,417Z" style="isolation:isolate;opacity:0.2"></path><path d="M284.66,387.33l-61.22,23.42-23.05-86-.78-11.43a3.32,3.32,0,0,1,1.62-.39h59.49a5.59,5.59,0,0,1,5.07,4Z" style="isolation:isolate;opacity:0.2"></path><path d="M231.28,417H171.79a3,3,0,0,1-2.93-4l25.75-96.11a5.61,5.61,0,0,1,5.08-4h59.49a3,3,0,0,1,2.93,4L236.36,413A5.61,5.61,0,0,1,231.28,417Z" style="fill:#F5C401"></path><path d="M231.28,417H171.79a3,3,0,0,1-2.93-4l25.75-96.11a5.61,5.61,0,0,1,5.08-4h59.49a3,3,0,0,1,2.93,4L236.36,413A5.61,5.61,0,0,1,231.28,417Z" style="fill:#fff;opacity:0.6000000000000001"></path><polygon points="173.79 412.3 199.15 317.65 257.18 317.65 231.82 412.3 173.79 412.3" style="fill:#F5C401"></polygon><ellipse cx="215.49" cy="364.98" rx="40.39" ry="16.94" transform="translate(-202.64 295.62) rotate(-50.02)" style="fill:#fff;opacity:0.4"></ellipse><path d="M216.8,374.92l1-3.86-1.94-.19a8.29,8.29,0,0,0-.53-3.56l1.69-1.54-2-2.73-1.89,1.28a7.58,7.58,0,0,0-3.16-1.48l.34-2H206.5l-.72,2a13.4,13.4,0,0,0-4,1.48l-1.2-1.28-3.45,2.73.86,1.54a14.53,14.53,0,0,0-2.44,3.56l-2,.19-1,3.86,1.94.18a8.31,8.31,0,0,0,.53,3.57l-1.69,1.54,2,2.73,1.89-1.28a7.7,7.7,0,0,0,3.16,1.48l-.34,2h3.86l.71-2a13.48,13.48,0,0,0,4-1.48l1.2,1.28,3.46-2.73-.86-1.54a14.4,14.4,0,0,0,2.44-3.57Zm-13,3.29c-2.88,0-4.6-2.34-3.82-5.22a7.28,7.28,0,0,1,6.62-5.22c2.88,0,4.59,2.33,3.82,5.22A7.31,7.31,0,0,1,203.78,378.21Z" style="fill:#fff"></path><path d="M222.79,346.38a10.5,10.5,0,0,0-3.1,1.16l-.94-1L216,348.68l.67,1.21a11.52,11.52,0,0,0-1.91,2.79l-1.59.15-.81,3,1.52.15a6.38,6.38,0,0,0,.41,2.79L213,360l1.56,2.13,1.48-1a6,6,0,0,0,2.48,1.16l-.27,1.56h3l.56-1.56a10.66,10.66,0,0,0,3.11-1.16l.94,1L228.6,360l-.68-1.21a11.43,11.43,0,0,0,1.91-2.79l1.59-.15.81-3-1.51-.15a6.66,6.66,0,0,0-.41-2.79l1.32-1.21-1.57-2.14-1.47,1a6.05,6.05,0,0,0-2.48-1.16l.27-1.56h-3Zm3.62,8a5.73,5.73,0,0,1-5.19,4.09,3,3,0,0,1-3-4.09,5.73,5.73,0,0,1,5.19-4.09A3,3,0,0,1,226.41,354.34Z" style="fill:#fff"></path><path d="M223.85,364.69l-.6-.64-1.72,1.36.43.77a7,7,0,0,0-1.21,1.77l-1,.09-.52,1.92,1,.09a4.23,4.23,0,0,0,.27,1.77l-.84.77,1,1.36.94-.64a3.69,3.69,0,0,0,1.57.74l-.17,1h1.92l.35-1a6.54,6.54,0,0,0,2-.74l.6.64,1.72-1.36-.43-.77a6.87,6.87,0,0,0,1.21-1.77l1-.09.52-1.92-1-.09a4.25,4.25,0,0,0-.27-1.77l.84-.77-1-1.36-.94.64a3.81,3.81,0,0,0-1.57-.74l.17-1h-1.92l-.35,1A6.82,6.82,0,0,0,223.85,364.69Zm4.26,4.31a3.64,3.64,0,0,1-3.29,2.6,1.93,1.93,0,0,1-1.9-2.6,3.64,3.64,0,0,1,3.29-2.6A1.93,1.93,0,0,1,228.11,369Z" style="fill:#fff"></path></g><g id="freepik--character-2--inject-10"><path d="M308.09,210.66s-1.51-15.57,3-23.17,12.05-6.5,20.36-1,7.86,15.08,5.25,24.85l-3.06.85-.39-3.64-.89,3.86L327,213.52v-3.74l-1.33,3.74-12.25-.39-1.25-3.6-.35,2.93Z" style="fill:#263238"></path><path d="M311.92,232c-3.88,6.84-8,13.49-12.34,20.06L298,254.47c-.09.15-.38.55-.61.86a9.66,9.66,0,0,1-.77.89,12.58,12.58,0,0,1-1.65,1.42,18.56,18.56,0,0,1-6.69,2.76,37.81,37.81,0,0,1-12.61.46,2.26,2.26,0,0,1-.14-4.47l.15,0a56.16,56.16,0,0,0,10.58-2.75,12.81,12.81,0,0,0,3.87-2.23,4.85,4.85,0,0,0,.5-.57c0-.09.13-.17.16-.25a3.16,3.16,0,0,1,.19-.37l1.43-2.55c3.81-6.82,7.68-13.62,11.72-20.28h0a4.54,4.54,0,0,1,7.83,4.6Z" style="fill:#ffb573"></path><path d="M267.94,256.55l1.72-1.43a2.59,2.59,0,0,1,2.33-.52l3.81,1a4.88,4.88,0,0,1,3.32,3l.34.91c-2.68,2.58-7.49,3.38-7.49,3.38l-1.34.39a2.18,2.18,0,0,1-2.73-1.44l-.79-2.66A2.52,2.52,0,0,1,267.94,256.55Z" style="fill:#ffb573"></path><path d="M309.54,221.16c-7.3,1.34-8.49,6.25-13.94,16.07a15.48,15.48,0,0,0,10.47,8.26S318.67,228.32,309.54,221.16Z" style="fill:#F5C401"></path><path d="M309.54,221.16c-7.3,1.34-8.49,6.25-13.94,16.07a15.48,15.48,0,0,0,10.47,8.26S318.67,228.32,309.54,221.16Z" style="fill:#fff;opacity:0.8"></path><path d="M301.61,234.94a32.63,32.63,0,0,1-2.43,7,14.85,14.85,0,0,0,6.89,3.57,46.87,46.87,0,0,0,5-9Z" style="opacity:0.1"></path><path d="M300.75,231a120.15,120.15,0,0,0,.2,12.92c.23,5.61-.75,21.58,3.23,22.59,3.07,1.8,18.64,1.14,28.58-.14,4.73-1.39-3.29-13.8,5.49-37,1.53-4-1.54-8.14-6-8.56-1.19-.11-2.45-.21-3.74-.27a101.68,101.68,0,0,0-13.64,0c-1.48.13-3,.3-4.48.5C305.1,221.65,300.91,226,300.75,231Z" style="fill:#F5C401"></path><path d="M300.75,231a120.15,120.15,0,0,0,.2,12.92c.23,5.61-.75,21.58,3.23,22.59,3.07,1.8,18.64,1.14,28.58-.14,4.73-1.39-3.29-13.8,5.49-37,1.53-4-1.54-8.14-6-8.56-1.19-.11-2.45-.21-3.74-.27a101.68,101.68,0,0,0-13.64,0c-1.48.13-3,.3-4.48.5C305.1,221.65,300.91,226,300.75,231Z" style="fill:#fff;opacity:0.8"></path><path d="M303.45,267s-5.06,39.34-4.62,64.32c-1.75,23.42-3.22,72.59-5.89,77.91.09,1.19,4.27,1.46,5.39.74,0,0,17.52-40.62,15.16-78.65C329.58,291.63,328.62,267,328.62,267Z" style="fill:#ffb573"></path><path d="M310.3,267s11.5,44.4,16.06,66.2c4.78,22.9,11.09,61.38,9.75,76.59,1.29.76,3.66.85,6.25,0,0,0,10.26-51.11-.07-75.62C346.82,280,332.48,267,332.48,267Z" style="fill:#ffb573"></path><path d="M331.31,235.44c-.5,5.15,1.75,10.29,2.75,12.27a61.85,61.85,0,0,1,1.25-8.61Z" style="opacity:0.1"></path><path d="M327.56,205.13c-1.19,4.38-2.65,12.42.21,15.35,0,0,2,3.85-9.54,3.5a69.32,69.32,0,0,0-2.2,7.28s-.9-5.65-.1-7.41c-7.45-.64-1.8-3.37-1.8-3.37,5-1.17,5.12-4.8,4.53-8.21Z" style="fill:#ffb573"></path><path d="M323.93,208l-5.27,4.23a13.23,13.23,0,0,1,.24,2.42c1.89-.27,4.61-2.32,5-4.28A6.51,6.51,0,0,0,323.93,208Z" style="opacity:0.2"></path><path d="M331.31,196.32c-1.34,7.08-1.75,10.1-5.79,13.5-6.08,5.11-14.43,2.41-15.23-4.82-.72-6.5,1.58-17,8.87-19.33A9.24,9.24,0,0,1,331.31,196.32Z" style="fill:#ffb573"></path><path d="M325.21,191.2c3.91,5.05-4.12,10.85,3.91,10.51s4.77-11.67,0-14.25S325.21,191.2,325.21,191.2Z" style="fill:#263238"></path><path d="M329.1,187.55c-1,4.83-1.78,6.08-6.08,4.77a5,5,0,0,0,.8-3.29,4.77,4.77,0,0,1-2.4,2.66,17.67,17.67,0,0,0-3.58-1.1,4.75,4.75,0,0,0,.21-2.09,4.48,4.48,0,0,1-1.63,2,12,12,0,0,0-3.87.68C312.57,186.07,321.19,180.58,329.1,187.55Z" style="fill:#263238"></path><path d="M320.08,197.5c-.08.6-.46,1.06-.85,1s-.62-.53-.54-1.13.47-1.06.86-1S320.17,196.9,320.08,197.5Z" style="fill:#263238"></path><path d="M312.85,197.07c-.09.6-.47,1.07-.85,1s-.63-.54-.54-1.14.47-1.06.85-1S312.94,196.47,312.85,197.07Z" style="fill:#263238"></path><path d="M312.47,196l-1.35-.52S311.69,196.64,312.47,196Z" style="fill:#263238"></path><path d="M314.72,198.21a18.13,18.13,0,0,1-2.64,3.67,2.41,2.41,0,0,0,2,.55Z" style="fill:#ed893e"></path><path d="M317.17,204.9a6.49,6.49,0,0,1-1,0,.16.16,0,0,1-.15-.19.18.18,0,0,1,.2-.16,5,5,0,0,0,4-1.58.18.18,0,0,1,.25,0,.17.17,0,0,1,0,.24A5.33,5.33,0,0,1,317.17,204.9Z" style="fill:#263238"></path><path d="M332,203.15a4.93,4.93,0,0,1-3,2.64c-1.65.44-2.36-1.45-1.81-3.34.49-1.7,1.94-4,3.55-3.56S332.82,201.49,332,203.15Z" style="fill:#ffb573"></path><path d="M322.1,194.28a.29.29,0,0,1-.24-.11,2.61,2.61,0,0,0-2.29-.88.32.32,0,0,1-.39-.27.38.38,0,0,1,.3-.42,3.23,3.23,0,0,1,2.91,1.08.36.36,0,0,1,0,.5A.39.39,0,0,1,322.1,194.28Z" style="fill:#263238"></path><path d="M311.22,193.63a.32.32,0,0,1-.24-.08.35.35,0,0,1,0-.49,3.75,3.75,0,0,1,3-1.34.33.33,0,0,1,.28.39.39.39,0,0,1-.41.31,3,3,0,0,0-2.36,1.08A.41.41,0,0,1,311.22,193.63Z" style="fill:#263238"></path><path d="M319.71,196.41l-1.35-.52S318.92,197.07,319.71,196.41Z" style="fill:#263238"></path><path d="M334.29,268.88l-.83-2.9a144.08,144.08,0,0,1-30.3-.19L303,269c-1.88,5.41-6.7,42.81-6.7,58.95,18.49,3.64,31.72,1.38,39.39-1.23C337,323,340,309.83,340,309.83s2.09,13,2.23,17c1.2-.56,3.11-1.17,3.67-1.72C347.68,318.72,343.62,279.25,334.29,268.88Z" style="fill:#263238"></path><path d="M343.7,416.66h-1.43l-.4-1.77L337.13,417h-12s-1.91-1.92,3.81-3.45a4.31,4.31,0,0,0,.81-.31c3.05-1.43,7.39-6.26,7.39-6.26h6.59a8.37,8.37,0,0,1,.54.95C345,409.41,346.22,412.45,343.7,416.66Z" style="fill:#263238"></path><path d="M344.26,408v0c-.87-1-4.83,3.29-7.73,4.74-2.59,1.29-5.5,1.86-6.79.55,3.05-1.43,7.85-7.67,7.85-7.67h5.3S344,407.34,344.26,408Z" style="fill:#ffb573"></path><path d="M300.67,416.66h-1.43l-.4-1.77L294.1,417h-12s-1.91-1.92,3.81-3.45a4.31,4.31,0,0,0,.81-.31c3.05-1.43,7.39-6.26,7.39-6.26h6.59a8.37,8.37,0,0,1,.54.95C302,409.41,303.2,412.45,300.67,416.66Z" style="fill:#263238"></path><path d="M301.23,408v0c-.87-1-4.83,3.29-7.73,4.74-2.59,1.29-5.5,1.86-6.79.55,3.05-1.43,7.85-7.67,7.85-7.67h5.3S300.92,407.34,301.23,408Z" style="fill:#ffb573"></path><path d="M306.54,266.65l0,2.28c-1.27-.2-2.53-.44-3.76-.74v-2.11S304.14,266.35,306.54,266.65Z" style="fill:#263238"></path><path d="M322.75,267.35l.21,2.17a80.41,80.41,0,0,1-15.74-.5l-.05-2.29A107.73,107.73,0,0,0,322.75,267.35Z" style="fill:#263238"></path><path d="M334.46,268.25a100.76,100.76,0,0,1-10.85,1.23l-.23-2.16c3.25-.11,6.79-.37,10.55-.85Z" style="fill:#263238"></path><path d="M306.54,266.65l0,2.28c-1.27-.2-2.53-.44-3.76-.74v-2.11S304.14,266.35,306.54,266.65Z" style="fill:#fff;opacity:0.4"></path><path d="M322.75,267.35l.21,2.17a80.41,80.41,0,0,1-15.74-.5l-.05-2.29A107.73,107.73,0,0,0,322.75,267.35Z" style="fill:#fff;opacity:0.4"></path><path d="M334.46,268.25a100.76,100.76,0,0,1-10.85,1.23l-.23-2.16c3.25-.11,6.79-.37,10.55-.85Z" style="fill:#fff;opacity:0.4"></path><path d="M312.07,267.33v2a.54.54,0,0,0,.51.53l3.23.14a.52.52,0,0,0,.55-.55l-.11-2a.52.52,0,0,0-.5-.5l-3.12-.17A.53.53,0,0,0,312.07,267.33Z" style="fill:#fff"></path><path d="M318.23,224s5.81-1.49,9-5.11c0,0,2.65.77,3.11,1.7s-.65,6.87-3.4,7.06A11.13,11.13,0,0,1,318.23,224Z" style="fill:#F5C401"></path><path d="M315.93,223.85s-4.62,3.13-6.59,2.47,1.84-6.47,8.3-7.45C317.64,218.87,314.54,220.9,315.93,223.85Z" style="fill:#F5C401"></path><path d="M318.23,224s5.81-1.49,9-5.11c0,0,2.65.77,3.11,1.7s-.65,6.87-3.4,7.06A11.13,11.13,0,0,1,318.23,224Z" style="fill:#fff;opacity:0.7000000000000001"></path><path d="M315.93,223.85s-4.62,3.13-6.59,2.47,1.84-6.47,8.3-7.45C317.64,218.87,314.54,220.9,315.93,223.85Z" style="fill:#fff;opacity:0.7000000000000001"></path><path d="M221.59,197.59l58.86-8.65a5.6,5.6,0,0,1,5.6,3.23l39.45,91.34a3,3,0,0,1-2.32,4.38l-58.85,8.65a5.59,5.59,0,0,1-5.6-3.22L219.28,202A3,3,0,0,1,221.59,197.59Z" style="fill:#F5C401"></path><path d="M221.59,197.59l58.86-8.65a5.6,5.6,0,0,1,5.6,3.23l39.45,91.34a3,3,0,0,1-2.32,4.38l-58.85,8.65a5.59,5.59,0,0,1-5.6-3.22L219.28,202A3,3,0,0,1,221.59,197.59Z" style="fill:#fff;opacity:0.6000000000000001"></path><polygon points="281.67 193.55 320.52 283.5 263.11 291.94 224.26 201.98 281.67 193.55" style="fill:#F5C401"></polygon><ellipse cx="272.39" cy="242.74" rx="20.75" ry="32.98" transform="translate(-3.61 4.12) rotate(-0.86)" style="fill:#fff;opacity:0.4"></ellipse><polygon points="282.06 265.13 290.73 248.73 282.39 249.96 279.64 243.61 266.7 245.51 269.45 251.86 261.11 253.09 282.06 265.13" style="fill:#fff"></polygon><polygon points="276.63 236.64 263.69 238.54 265.93 243.72 278.87 241.82 276.63 236.64" style="fill:#fff"></polygon><polygon points="274.52 231.74 261.58 233.64 262.67 236.16 275.61 234.26 274.52 231.74" style="fill:#fff"></polygon><polygon points="272.61 227.32 259.67 229.22 260.17 230.37 273.11 228.47 272.61 227.32" style="fill:#fff"></polygon><polygon points="270.07 221.43 257.13 223.33 257.38 223.91 270.31 222.01 270.07 221.43" style="fill:#fff"></polygon><path d="M221.59,197.59l58.86-8.65a5.6,5.6,0,0,1,5.6,3.23l39.45,91.34a3,3,0,0,1-2.32,4.38l-58.85,8.65a5.59,5.59,0,0,1-5.6-3.22L219.28,202A3,3,0,0,1,221.59,197.59Z" style="isolation:isolate;opacity:0.2"></path><path d="M340.66,229.41c1.23,4,2.32,8,3.29,12.05.49,2,.95,4.08,1.36,6.17.2,1.05.41,2.1.57,3.21.08.56.16,1.12.22,1.73,0,.31.06.63.08,1,0,.16,0,.37,0,.6v.33a4.6,4.6,0,0,1,0,.5,6.78,6.78,0,0,1-1.37,3.49,9.06,9.06,0,0,1-2,1.86,16.1,16.1,0,0,1-3.6,1.83,36.51,36.51,0,0,1-6.6,1.67,69.76,69.76,0,0,1-12.79.86,2.26,2.26,0,0,1-.46-4.46l.07,0c3.91-.87,7.89-1.85,11.61-3a36.45,36.45,0,0,0,5.19-2,8.17,8.17,0,0,0,1.79-1.15c.18-.17.27-.32.23-.3a1.13,1.13,0,0,0-.27.64v.12l0-.06,0-.18-.09-.54c-.08-.41-.18-.86-.29-1.31l-.71-2.84c-.52-1.93-1.07-3.88-1.62-5.83-1.11-3.91-2.23-7.86-3.31-11.78v0a4.54,4.54,0,0,1,8.72-2.53Z" style="fill:#ffb573"></path><path d="M332.54,220.8c4.89.75,10.37,5.83,14.36,15.65-4.62,8-11.49,9-11.49,9S325.82,232.17,332.54,220.8Z" style="fill:#F5C401"></path><path d="M311.8,258l2.07-.85a2.6,2.6,0,0,1,2.38.2l3.34,2.09a4.88,4.88,0,0,1,2.27,3.84l.05,1c-3.33,1.65-8.16,1-8.16,1l-1.39,0a2.16,2.16,0,0,1-2.17-2.19l0-2.77A2.5,2.5,0,0,1,311.8,258Z" style="fill:#ffb573"></path><path d="M332.54,220.8c4.89.75,10.37,5.83,14.36,15.65-4.62,8-11.49,9-11.49,9S325.82,232.17,332.54,220.8Z" style="fill:#fff;opacity:0.8"></path></g><g id="freepik--character-1--inject-10"><polygon points="140.19 411.72 147.04 410.7 146.66 394.61 139.81 395.63 140.19 411.72" style="fill:#e4897b"></polygon><polygon points="88.12 409.96 94.89 411.34 100.01 396.04 93.23 394.66 88.12 409.96" style="fill:#e4897b"></polygon><polygon points="146.66 394.61 146.86 402.91 140 403.93 139.8 395.63 146.66 394.61" style="opacity:0.2"></polygon><polygon points="93.23 394.66 100.01 396.04 97.37 403.93 90.59 402.55 93.23 394.66" style="opacity:0.2"></polygon><path d="M149.21,401l-11.61,1.72s-.88-38.9-1.18-60.43A223.39,223.39,0,0,0,134,316.67c-1.74-12.41-4.11-25.86-6.08-36.4-2.08-11.1-3.72-19-3.72-19l24.34,0s7.39,54.95,7.27,76C155.64,359.3,149.21,401,149.21,401Z" style="fill:#263238"></path><path d="M134,316.67c-1.74-12.41-4.11-25.86-6.08-36.4l2.95-5.22C136.24,282.6,136.08,304.77,134,316.67Z" style="opacity:0.2"></path><path d="M135.36,261.31s-7.73,59.36-11.52,79.29c-4.15,21.83-23,62.4-23,62.4l-12.42-2.52s12.79-37.47,15.52-59.37c2.33-18.65,5.48-55.15,6.85-71.52a9,9,0,0,1,9-8.29Z" style="fill:#263238"></path><polygon points="102.26 403.57 87.65 400.6 88.58 396.24 104.02 398.46 102.26 403.57" style="fill:#263238"></polygon><polygon points="150.68 401.1 136.82 402.96 136.26 398.5 151.47 396.22 150.68 401.1" style="fill:#263238"></polygon><path d="M147.63,409.36l-7.57-.15a.62.62,0,0,0-.6.46l-1.54,6.11a1,1,0,0,0,1,1.25c2.73,0,6.68-.08,10.11,0,4,.08,6.56-.14,11.26-.05,2.85.06,3.72-2.79,2.54-3.07-5.39-1.29-8.9-1-13.51-4A3.18,3.18,0,0,0,147.63,409.36Z" style="fill:#263238"></path><path d="M148.18,410.19a.15.15,0,0,1,.09-.16c.32-.16,3.14-1.52,4-1a.52.52,0,0,1,.26.44.9.9,0,0,1-.33.79c-.78.65-2.75.35-3.86.1h0A.21.21,0,0,1,148.18,410.19Zm.68-.08c1.52.28,2.67.24,3.1-.13a.56.56,0,0,0,.21-.52.19.19,0,0,0-.09-.18l-.06,0C151.5,409.07,150,409.61,148.86,410.11Z" style="fill:#F5C401"></path><path d="M148.24,410.3a.16.16,0,0,1-.06-.15,4.71,4.71,0,0,1,1.15-2.63,1.2,1.2,0,0,1,.92-.27c.45.06.57.29.6.47.1.79-1.6,2.25-2.44,2.6a.2.2,0,0,1-.13,0Zm2-2.72a.89.89,0,0,0-.68.19,3.87,3.87,0,0,0-1,2.11c.87-.49,2-1.64,2-2.11,0,0,0-.1-.15-.15Z" style="fill:#F5C401"></path><path d="M158,208.72c1.64,3.08,3.49,6.35,5.38,9.32.94,1.51,1.94,2.94,2.94,4.26a19.75,19.75,0,0,0,2.94,3.16,3.24,3.24,0,0,0,.28.22,1.07,1.07,0,0,0,.22.14l.07.06h0a.5.5,0,0,0,.19.08,12.68,12.68,0,0,0,2,.3c1.63.11,3.45.12,5.28.08,3.66-.08,7.47-.26,11.23-.38h.06a2.63,2.63,0,0,1,1,5.09,78.79,78.79,0,0,1-11.37,3.29,47.71,47.71,0,0,1-6.14.89,19.2,19.2,0,0,1-3.68-.06,11.32,11.32,0,0,1-1.2-.23l-.71-.21-.58-.23a9.56,9.56,0,0,1-1.06-.49,7.5,7.5,0,0,1-.94-.54,24.56,24.56,0,0,1-5.34-4.69,52.88,52.88,0,0,1-3.88-4.95c-1.16-1.68-2.25-3.38-3.25-5.12s-2-3.44-2.86-5.36c-1.24-2.62.6-6.35,3.21-7.59s5.13.35,6.15,2.88Z" style="fill:#F5C401"></path><path d="M191.32,228.51a2.64,2.64,0,0,1-1.72,2.54,76.33,76.33,0,0,1-11.37,3.29,44.45,44.45,0,0,1-6.14.89,17.6,17.6,0,0,1-3.67-.06,11.25,11.25,0,0,1-1.21-.22l-.71-.21-.16-.07-.41-.16a9,9,0,0,1-1.07-.49c-.34-.18-.65-.36-.94-.54a22,22,0,0,1-4.06-3.34c-.44-.45-.86-.91-1.28-1.36a52.64,52.64,0,0,1-3.87-4.94c-.76-1.1-1.49-2.2-2.18-3.32q-.56-.9-1.08-1.8c-1-1.76-1.95-3.44-2.86-5.36-1.23-2.62.6-6.36,3.22-7.59s5.12.35,6.14,2.88l0,.07c1.64,3.08,3.5,6.35,5.38,9.32.94,1.5,1.95,2.93,2.95,4.26a19.74,19.74,0,0,0,2.93,3.16,2.86,2.86,0,0,0,.29.21l.21.15.08.06h0a.77.77,0,0,0,.19.08,12.68,12.68,0,0,0,2,.3c.56,0,1.15.06,1.75.08,1.14,0,2.33,0,3.53,0,3.66-.08,7.47-.26,11.24-.38h.06A2.63,2.63,0,0,1,191.32,228.51Z" style="fill:#fff;opacity:0.7000000000000001"></path><path d="M159.86,230.14c-.44-.45-.86-.91-1.28-1.36a52.64,52.64,0,0,1-3.87-4.94c-.76-1.1-1.49-2.2-2.18-3.32l3.81-6.44S160.92,219.6,159.86,230.14Z" style="opacity:0.1"></path><path d="M191.32,228.51a2.64,2.64,0,0,1-1.72,2.54,76.33,76.33,0,0,1-11.37,3.29,44.45,44.45,0,0,1-6.14.89,17.6,17.6,0,0,1-3.67-.06,11.25,11.25,0,0,1-1.21-.22l-.71-.21-.16-.07a44.91,44.91,0,0,1,7.44-8.32c1.14,0,2.33,0,3.53,0,3.66-.08,7.47-.26,11.24-.38h.06A2.63,2.63,0,0,1,191.32,228.51Z" style="opacity:0.1"></path><path d="M117.4,201.31a155.14,155.14,0,0,1,0,23.12c-.37,5.38-1,10.47-1.6,15.07-1.49,10.77-3.3,18.87-3.51,21.68l36.78,4.11c12.4-37.71,6.81-59.33,6.81-59.33a71.2,71.2,0,0,0-8.48-2.66c-.61-.16-1.23-.29-1.86-.42a136.34,136.34,0,0,0-15.64-1.75c-1-.06-2-.1-3-.12C121.91,200.91,117.4,201.31,117.4,201.31Z" style="fill:#F5C401"></path><path d="M155.22,241q-.63,3.71-1.55,7.77c-1.15,5.09-2.65,10.59-4.59,16.49l-36.78-4.11c.21-2.82,2-10.91,3.52-21.68,0-.12,0-.23.05-.35.62-4.5,1.18-9.47,1.54-14.72.09-1.22.16-2.46.22-3.72a148.4,148.4,0,0,0-.23-19.4s4.51-.4,9.52-.3c1,0,2,.05,3,.12a136.34,136.34,0,0,1,15.64,1.75c.63.12,1.25.26,1.86.41a72.66,72.66,0,0,1,8.48,2.66S159.13,218.46,155.22,241Z" style="fill:#fff;opacity:0.7000000000000001"></path><path d="M142.52,209.74c.58,2.85,1.2,27.58,1.43,34.85l-2.88,2.82-2-3.48c.36-6.93,2.53-30.7,2-34.31Z" style="fill:#F5C401"></path><polygon points="142.17 211.94 143.85 208.64 141.5 207.27 139.5 208.2 142.17 211.94" style="fill:#F5C401"></polygon><path d="M141.39,207.26a15.6,15.6,0,0,1-11.48-6.13c3.93-3,4.06-12.26,3.69-17.39l1.51,1.62L142.2,193a15.17,15.17,0,0,0-1,3.54c-.31,2.6.55,5,4.31,6.34C146.31,204.65,145.73,207.65,141.39,207.26Z" style="fill:#e4897b"></path><path d="M142.2,193a15.17,15.17,0,0,0-1,3.54c-4,1.14-7.26-3.11-7.26-7.43,0-1.5.88-2.9,1.13-3.74Z" style="opacity:0.2"></path><path d="M153,174.6c.75,2.69.12,8.14-3.54,6.24S151.71,170,153,174.6Z" style="fill:#263238"></path><path d="M133.72,177.58c-.62,6.83-1.34,10.8,1.55,14.76,4.35,6,13.21,4.08,15.87-2.44,2.39-5.87,3-16.05-3.21-19.7A9.46,9.46,0,0,0,133.72,177.58Z" style="fill:#e4897b"></path><path d="M150.32,176.05c4.78,0,8.68-4.69,3-9.26a14.59,14.59,0,0,0-4.43-2.25s1.13,1.85-.21,3.1a6.88,6.88,0,0,0-6.81-4.64c.71,1.52-.49,4.56-2.71,3.51-3.37-1.58-8.44-1.12-8.2,3.18-4.58,2.09-2.67,9.16,3.27,12.79,3.4-2.54,3.22-8.95,3.22-8.95C140.63,175.05,146,176,150.32,176.05Z" style="fill:#263238"></path><path d="M131.86,170.29s-2.63-1.83-.32-4C128.53,167,129.25,169.4,131.86,170.29Z" style="fill:#263238"></path><path d="M132.22,171s-2.34-2.19-4,.52C128.3,168.45,130.81,168.65,132.22,171Z" style="fill:#263238"></path><path d="M130.25,182.82a6.45,6.45,0,0,0,2.6,4.22c1.86,1.31,3.58-.18,3.71-2.34.13-1.94-.69-5-2.88-5.42A3,3,0,0,0,130.25,182.82Z" style="fill:#e4897b"></path><path d="M143.72,181c-.08.55.14,1,.5,1.09s.73-.35.81-.9-.14-1-.5-1.1S143.81,180.41,143.72,181Z" style="fill:#263238"></path><path d="M150,181.86c-.09.55.14,1,.5,1.09s.72-.35.81-.9-.14-1-.5-1.1S150.05,181.31,150,181.86Z" style="fill:#263238"></path><path d="M147.94,181.85a19.49,19.49,0,0,0,2,4.93,3.3,3.3,0,0,1-2.69.06Z" style="fill:#de5753"></path><path d="M143.94,188.52a4,4,0,0,0,.72.15.16.16,0,0,0,.05-.32,4.37,4.37,0,0,1-3.31-2.22.16.16,0,0,0-.22-.08.17.17,0,0,0-.08.22A4.58,4.58,0,0,0,143.94,188.52Z" style="fill:#263238"></path><path d="M142.11,178.67a.35.35,0,0,0,.32-.08,2.58,2.58,0,0,1,2.24-.78.34.34,0,0,0,.4-.25.32.32,0,0,0-.25-.39,3.27,3.27,0,0,0-2.85,1,.33.33,0,0,0,0,.47A.39.39,0,0,0,142.11,178.67Z" style="fill:#263238"></path><path d="M153,180.1a.31.31,0,0,0,.19,0,.33.33,0,0,0,.22-.41,3.23,3.23,0,0,0-2.06-2.16.33.33,0,0,0-.4.23.32.32,0,0,0,.22.4,2.53,2.53,0,0,1,1.61,1.73A.31.31,0,0,0,153,180.1Z" style="fill:#263238"></path><path d="M141.5,207.27s-1.88,1.91-4,3.77c-2.69-1.81-8.93-6.54-8.28-10.26a3.76,3.76,0,0,1,2-1.57A40.63,40.63,0,0,0,141.5,207.27Z" style="fill:#F5C401"></path><path d="M141.5,207.27a20.11,20.11,0,0,1,3.27,4.51c2.2-1.22,1.76-8.31,1.06-9.16a4.86,4.86,0,0,0-2.69-1.22S144.85,206.8,141.5,207.27Z" style="fill:#F5C401"></path><g style="opacity:0.5"><path d="M141.5,207.27s-1.88,1.91-4,3.77c-2.69-1.81-8.93-6.54-8.28-10.26a3.76,3.76,0,0,1,2-1.57A40.63,40.63,0,0,0,141.5,207.27Z" style="fill:#fff"></path></g><g style="opacity:0.5"><path d="M141.5,207.27a20.11,20.11,0,0,1,3.27,4.51c2.2-1.22,1.76-8.31,1.06-9.16a4.86,4.86,0,0,0-2.69-1.22S144.85,206.8,141.5,207.27Z" style="fill:#fff"></path></g><path d="M155.22,241q-.63,3.71-1.55,7.77c-5.74.4-21.42,1.15-29-1.8-3.74-1.44-6.65-4.59-8.79-7.85.62-4.5,1.18-9.47,1.54-14.72.09-1.22.16-2.46.22-3.72l7.08-8.93s6.34,19.45,8.75,21.36C135.42,234.7,149.93,239.36,155.22,241Z" style="opacity:0.1"></path><path d="M113.26,255.06s-3.86,9.79-3.86,30.82l12.75,4.78L132,277.05l17.25.46.14-11.37.51-3.55Z" style="fill:#263238"></path><polygon points="113.01 255.69 114.99 256.09 114.41 258.88 112.17 258.45 113.01 255.69"></polygon><polygon points="116.23 256.33 126.5 258.39 125.94 261.08 115.66 259.12 116.23 256.33"></polygon><polygon points="127.74 258.63 144.63 262.01 144.52 264.63 127.19 261.32 127.74 258.63"></polygon><polygon points="149.95 263.07 149.43 265.57 145.78 264.87 145.88 262.26 149.95 263.07"></polygon><path d="M134.2,260.1l-.48,2.55a.43.43,0,0,0,.34.51L138,264a.43.43,0,0,0,.53-.36l.37-2.6a.45.45,0,0,0-.35-.5l-3.8-.79A.43.43,0,0,0,134.2,260.1Z" style="fill:#fff"></path><path d="M94.6,409.36,87,409.21a.62.62,0,0,0-.6.46l-1.55,6.11a1,1,0,0,0,1,1.25c2.73,0,6.68-.08,10.11,0,4,.08,6.56-.14,11.26-.05,2.85.06,3.72-2.79,2.53-3.07-5.38-1.29-8.9-1-13.5-4A3.21,3.21,0,0,0,94.6,409.36Z" style="fill:#263238"></path><path d="M95.15,410.19a.15.15,0,0,1,.09-.16c.32-.16,3.14-1.52,4-1a.52.52,0,0,1,.26.44,1,1,0,0,1-.33.79c-.78.65-2.76.35-3.87.1h0A.16.16,0,0,1,95.15,410.19Zm.68-.08c1.52.28,2.66.24,3.1-.13a.61.61,0,0,0,.21-.52.18.18,0,0,0-.1-.18l-.06,0C98.47,409.07,96.94,409.61,95.83,410.11Z" style="fill:#F5C401"></path><path d="M95.21,410.3a.14.14,0,0,1-.06-.15,4.71,4.71,0,0,1,1.15-2.63,1.18,1.18,0,0,1,.91-.27c.45.06.58.29.6.47.11.79-1.59,2.25-2.44,2.6a.17.17,0,0,1-.12,0Zm2-2.72a.87.87,0,0,0-.67.19,4,4,0,0,0-1,2.11c.87-.49,2-1.64,2-2.11,0,0,0-.1-.15-.15A.61.61,0,0,0,97.17,407.58Z" style="fill:#F5C401"></path><path d="M205.93,295.2l-57.34-15.83a3,3,0,0,1-1.76-4.63L197.21,189a5.59,5.59,0,0,1,6-2.51l57.34,15.82a3,3,0,0,1,1.76,4.64l-50.38,85.79A5.61,5.61,0,0,1,205.93,295.2Z" style="fill:#F5C401"></path><path d="M205.93,295.2l-57.34-15.83a3,3,0,0,1-1.76-4.63L197.21,189a5.59,5.59,0,0,1,6-2.51l57.34,15.82a3,3,0,0,1,1.76,4.64l-50.38,85.79A5.61,5.61,0,0,1,205.93,295.2Z" style="fill:#fff;opacity:0.6000000000000001"></path><polygon points="151.77 275.35 201.39 190.85 257.33 206.29 207.71 290.78 151.77 275.35" style="fill:#F5C401"></polygon><ellipse cx="204.55" cy="240.82" rx="40.39" ry="16.94" transform="translate(-100.57 158.73) rotate(-34.6)" style="fill:#fff;opacity:0.4"></ellipse><path d="M205.86,253.67l-15.24-4.21a.94.94,0,0,1-.72-1.32h0a1.52,1.52,0,0,1,1.73-.65l15.49,4.27a.83.83,0,0,1,.59,1.3h0A1.8,1.8,0,0,1,205.86,253.67Z" style="fill:#fff"></path><path d="M203.6,256.36l-14.08-3.88a.9.9,0,0,1-.71-1.26h0a1.48,1.48,0,0,1,1.68-.62l14.31,4c.66.18.93.74.59,1.24h0A1.72,1.72,0,0,1,203.6,256.36Z" style="fill:#fff"></path><path d="M201.45,258.94l-13-3.59c-.64-.17-.95-.71-.7-1.2h0a1.46,1.46,0,0,1,1.63-.59l13.19,3.64c.64.18.91.72.59,1.2h0A1.68,1.68,0,0,1,201.45,258.94Z" style="fill:#fff"></path><path d="M189.77,256.78c-.53,1,1.08,2.32,3.58,3l.1,0c2.5.69,5,.49,5.63-.47Z" style="fill:#fff"></path><path d="M211.12,241.22l-2.73-.75a.34.34,0,0,1-.27-.37l.29-1.89-3.77,3.17a.6.6,0,0,1-.56.12.32.32,0,0,1-.26-.36l.55-4-1.66,1.52a.63.63,0,0,1-.57.14l-2.65-.73c.63,3.45-1.34,8.28-2.08,9.91l5.46,1.51A32.58,32.58,0,0,1,211.12,241.22Z" style="fill:#fff"></path><path d="M215.7,221.83c-9-2.48-19.54,2.55-23.19,10.4a11.11,11.11,0,0,0,.36,10.83l-.92,3.45,4.62,1.27c.77-1.76,2.85-7,1.76-10.16a.38.38,0,0,1,.15-.44.61.61,0,0,1,.53-.12l3.25.9,2.44-2.24a.63.63,0,0,1,.58-.16h0a.35.35,0,0,1,.28.39L205,240l3.79-3.22a.65.65,0,0,1,.58-.14h0a.33.33,0,0,1,.27.38l-.42,2.71,3.21.89a.32.32,0,0,1,.26.32.5.5,0,0,1-.28.39,30,30,0,0,0-8.66,8.38l4.17,1.15,2.83-2.92a21,21,0,0,0,11.2-7.64C227.21,233,224.68,224.31,215.7,221.83Z" style="fill:#fff"></path><path d="M124.29,206.42c.17,2.51.36,5.25.68,7.85s.66,5.24,1.13,7.77a46.89,46.89,0,0,0,1.85,7.17,19.07,19.07,0,0,0,1.31,2.88,8.34,8.34,0,0,0,.68,1,3.35,3.35,0,0,0,.79.72,19.18,19.18,0,0,0,2.88,1.63c1.11.52,2.29,1,3.51,1.47,2.44.93,5,1.76,7.59,2.54,5.18,1.54,10.52,3,15.81,4.33h0a2.61,2.61,0,0,1-.77,5.13A137.22,137.22,0,0,1,142.91,247c-2.81-.49-5.62-1.09-8.47-1.86-1.41-.39-2.84-.84-4.3-1.38a25.12,25.12,0,0,1-4.53-2.14,13.27,13.27,0,0,1-2.44-1.89,15.69,15.69,0,0,1-1.93-2.26,23.91,23.91,0,0,1-2.49-4.51,49.94,49.94,0,0,1-2.79-8.8,87.61,87.61,0,0,1-1.49-8.66c-.16-1.44-.3-2.88-.42-4.33s-.2-2.84-.24-4.41a5.24,5.24,0,0,1,10.47-.48Z" style="fill:#F5C401"></path><path d="M124.29,206.42c.17,2.51.36,5.25.68,7.85s.66,5.24,1.13,7.77a46.89,46.89,0,0,0,1.85,7.17,19.07,19.07,0,0,0,1.31,2.88,8.34,8.34,0,0,0,.68,1,3.35,3.35,0,0,0,.79.72,19.18,19.18,0,0,0,2.88,1.63c1.11.52,2.29,1,3.51,1.47,2.44.93,5,1.76,7.59,2.54,5.18,1.54,10.52,3,15.81,4.33h0a2.61,2.61,0,0,1-.77,5.13A137.22,137.22,0,0,1,142.91,247c-2.81-.49-5.62-1.09-8.47-1.86-1.41-.39-2.84-.84-4.3-1.38a25.12,25.12,0,0,1-4.53-2.14,13.27,13.27,0,0,1-2.44-1.89,15.69,15.69,0,0,1-1.93-2.26,23.91,23.91,0,0,1-2.49-4.51,49.94,49.94,0,0,1-2.79-8.8,87.61,87.61,0,0,1-1.49-8.66c-.16-1.44-.3-2.88-.42-4.33s-.2-2.84-.24-4.41a5.24,5.24,0,0,1,10.47-.48Z" style="fill:#fff;opacity:0.7000000000000001"></path><path d="M159.91,243.58l6.87-1.39-2.09,8.63s-6.11-.13-6.38-3.39Z" style="fill:#e4897b"></path><polygon points="171.92 244.76 169.86 251.81 164.69 250.82 166.78 242.19 171.92 244.76" style="fill:#e4897b"></polygon><polygon points="156.73 249.22 158.12 242.74 160.49 243.48 159.28 249.22 156.73 249.22" style="fill:#F5C401"></polygon><polygon points="156.73 249.22 158.12 242.74 160.49 243.48 159.28 249.22 156.73 249.22" style="fill:#fff;opacity:0.5"></polygon></g></svg>
